<?xml version="1.0" encoding="UTF-8"?>
<!-- Do not edit this file with editors other than diagrams.net -->
<!DOCTYPE svg PUBLIC "-//W3C//DTD SVG 1.1//EN" "http://www.w3.org/Graphics/SVG/1.1/DTD/svg11.dtd">
<svg xmlns="http://www.w3.org/2000/svg" xmlns:xlink="http://www.w3.org/1999/xlink" version="1.1" width="751px" height="739px" viewBox="-0.5 -0.5 751 739" content="&lt;mxfile host=&quot;app.diagrams.net&quot; modified=&quot;2022-07-26T12:59:06.197Z&quot; agent=&quot;5.0 (Macintosh; Intel Mac OS X 10_15_7) AppleWebKit/537.36 (KHTML, like Gecko) Chrome/103.0.0.0 Safari/537.36&quot; etag=&quot;I4JDa6KS9ykF4uhcLQrW&quot; version=&quot;20.1.1&quot; type=&quot;github&quot;&gt;&lt;diagram id=&quot;R2lEEEUBdFMjLlhIrx00&quot; name=&quot;Page-1&quot;&gt;7V1bd5s4EP41nNN9aA/m4sCjsZ3uJTntps3eXvaoRrHZAnKxktj99SuBsLElKIRLbFCP24IsCzHzaT5pmBGKPg227yOwXt0iF/qKprpbRZ8pmjaydJ38R0t2ScmVOk4KlpHnskqHgk/ed8gKVVb66Llwc1QRI+Rjb31cuEBhCBf4qAxEEXo+rvaA/OOrrsEScgWfFsDnS//0XLxKSi1TPZT/DL3lKr3ySGXfBCCtzAo2K+Ci56MiuMXXKMSsix9hFIAQhph8cwuirzBSzPkKY3qnE0W7Jp8HWvvdEqGlD8Ha27xboIAULzakyvUDCDyfijnTkMMaIpfT54o+jRDCyVGwnUKf6ipVQ9Kn65xv93KIaLslfjB9+7S7+ari8Odn/Q98e7v8ePXlrcbQ8AT8RybgSYS9BZG2pr5R5hPF0RRrqsyniuUo9jQusRRL/YnJEO9SxRBxrukhBl9okbPBIMIMP7pKCggiMPBCcvP6bBSf+z5Yb7y4elKy8nz3BuzQI04bSs+cB28L3bsEPrQuQdINaYye0sapIj6xztCvge8tQ3K8INKhV3QiuCF9uQEbzGrw8mMifYIRhttMEZPne4gCiKMdqcK+HTPYsKFkswaeD7jUrljZKoNJXbXZeGBAW+5b3l/sjowdEC5jPaR9STu4S89V7nr7suPrHV8O+EQkIcDQQY+hu8mihhxkbvRQFGOpCq4MDle5gCEqwB7wD3d8Cg2qXzdC688gWkLMCtbIo5qdP8FkvMYg8Hx/inxEERaiEKbV4vs2HfIhkpiq70zFJB2YkvPR4Zx8aPUIT1G4wRFBKr0UJIB5hhQ0DkZrdh0fPqTdiJiY6fEXhDEZ/nnwKh6APwbd7libP0ZZPsiO1F1Ztyan24+/VdEuIjf74Memd+W5LgwT40DpAhw0LlCmUAN7qZ+q49QklNWIUVojWRXY1TQgGOYVW+tiFI85TZP6mvqW/P3iLekIOT+1p5Y/qets1mDhhcub5JfjTnCxPdZiVrGG1ihOyjTXBVCuhmzu1TbN/fjVzb3F6fb6HM19WQ1cldZA7827zWn2cQOjf8FiQa6J/41t/Rs69ycT/4lKD8i/FumoGq8DdMUyWKFtxhf7qWfk0Dik+swMn5/ff7tfBN9Gz9Zvv+v377+Ng5VoCiGZoRlmsDtkBrFu67H+q/FCMVAHxQtiUfCMjz2cuoQSez9V5o4ymSgTO7X5TyBarED0RjPNfOfQ5Vr+uqDps+X/5z97tf72Idotg8n9r5/u/rj/4L3lPYvS8Ddj+EWOP6Hl1wr8jGUtv1C39bx7r2b4C3Fa2+4XSbu63T9trYMRy/v1qMs+ef7xhtp7S1OceMZviwz/SCV/+mj6a8KmouWvAaMyzXWAIznlb83yGwIQtTXnF+r2Qqf8hTgd1IxfKAl+wr8CmxUGy8Tyz6h/J7H87CnwTLH09HHwleJYfVkENI6cwU37eZ+iNP4NGf+r1zb+aQxQL6y/XVr+fbf+oxGn1kUEySXdCU59PtTcz+IDQyGDh64BZopzCAxKCcAlP8NeAM8QF60sA8qjaHBMMNIkFbREBZr66lRQz713XlSwR6rkghHv2mNc4OwKuGCu2KrAH3SRa4CX0EAFBA2PB3i/ouSBhnhAf3UeqOfsOzMeMEsroPc8wDv6AuR6D97RosBSbOsQASQXBdVxNDw24H2Nkg0aYoPxq7NBPe/fmbGBVVoBfWcDjXf8pWyQWRbwbDD4ZUF5CA2OCDTe6yhTD0vjxDRK5B4KcgG19CFCL3IPxcAatN9RjK/iEVgv97CE1hubYAjylS8097AYunLKIcggHkTuYV1cFM0jKi4FfjSPKNFcF0CR7sW2zL0w97BTc897Fy8k97AYqtK8C3KHQDL736cd5i4AlEGkGtZFUJ+JQJyMI0PP2iICYaphS0Qg1K3OO6AuhAiKoTooIhBrlncDyST0l6QiNhOJdunMIDZ48plTW8wgzkUUOR7bykWsSftntkJo7JnTxWcjCii/UjqiOaDnTBVgU9H418lGLNFcFzga9FaE7Rp/YTpilw4ivZ7z77yMvz7InQfFouAdfzIlpXkYDW4loMuNClsjA2F6YqdkUG+Zd2ZkMMh9CsWi4Fd4MielUQQNjgcMfnEpeaAZHhDnJnbJAwbvUj7DMV9SAXukSh5IA1dlTsoL2KACjobHBnKvwtbYQJih2Ckb9GmzQqN8UlDv2YB3/cmclGYhNDwiKOEegu4SpjInkvbw7g76AHsonB++STSTZKCMyN07Kxz4ShLzC0N3Ql+ERk7nd99hhD6jWxDuFJa3cvguAKH7IYZNRO8YugwWcOvhv9LGyPHftJzQQnI222aqzXa59oVJfIMeowW7tcL3nuCUz3LJgQ1IKqCylmn/dras4veFUSzYJ3jU4QJ0fURxwEeKWz3lGcZFhnqCqOTe2a8OaOIaMk4a0k8bSmTDNdRUjExxiIxSPj5Gpk5lpx8pLETRbZZoipLOZXqROyWOIhryRFiMr8IRWStzSoix1iIoOc1eaOJUIW4HNS0WSmKgaVM1UVEw0zWbnemWaa4DmMikqZYMvShnqlNDz0dO3J+joS8p/0FmTAklwS9N6SLgFzd3+n+IhD+ERPbRy1ETN4Mz/TIYviXTX3Yd2UQovLDHFxoJX4jSQQXCi3HIxyrE7p812GyeUZRHALTEVGwjfn2D1aN3NLyEDhqJjxfZ7xroKtNcF/CqFy0h+SA/InIkAFGnawHBFuyXvBgYlVdB31cDgv3XYQA8f08Gszg3ylEmdswBLAymLw8+mwfM4JYBMhS+NbsvSovq1tl/oZHwxUCVVl8QCR96i68hCNimmQ4NcrTs+MBQJgaLeLGMgRn+ZmLf+2n4Zex7a4ZflALVqeG/1ND3YqBKwy8KfYcBSo0+m+STg4ky6Y2jp3mYDM7WC17nJG19I7ZemObUrXPnQvc+KAaqtPWCVyrJvQ+ah9HwuEA6fNriAlGSU7dc0CeHz0g6fPaikFsfvIgGpPsnVzaCdzlJGmiGBkTvX+uUBgTvVDrDIV9S/pp0/+xFIXD/yJ0PmsfR8MhA7nzQFhnYr04GF7rxQTFQJRkIXngkNz5oFkKD4wGdn2BwsMhufEDM7wotUQj8zjY9CMkd7nc9oCeZbQ/o6WHfg/gs3fgg3SwhPW5ss4SijMPsXgniTRXYAvVs9krYJy8w+jJHJyAsu1eCqR43pKnj44Zy9kogCAC7TDU2IcjvsH7SYbYVdF6/Tusb7Dyvvm7Vqz8aj08GanKHzQ7bEtO3Mxm2arVhmzsEs0Or8EUoZzO0TFOM1MpDS0+jO/bhJu0MLfPUFvxgaJ3WN4zioWLUrJ/ed25/jML6VYciOY0QwtnqEVivbpELaY3/AQ==&lt;/diagram&gt;&lt;/mxfile&gt;" resource="https://app.diagrams.net/#H95twan%2Fproject-board%2Ffeature%252F%252335%2Fdocument%2Fboard-erd.svg"><defs><clipPath id="mx-clip-0-30-29-30-0"><rect x="0" y="30" width="29" height="30"/></clipPath><clipPath id="mx-clip-35-30-236-30-0"><rect x="35" y="30" width="236" height="30"/></clipPath><clipPath id="mx-clip-0-60-29-30-0"><rect x="0" y="60" width="29" height="30"/></clipPath><clipPath id="mx-clip-35-60-236-30-0"><rect x="35" y="60" width="236" height="30"/></clipPath><clipPath id="mx-clip-35-90-236-30-0"><rect x="35" y="90" width="236" height="30"/></clipPath><clipPath id="mx-clip-35-120-236-29-0"><rect x="35" y="120" width="236" height="29"/></clipPath><clipPath id="mx-clip-35-149-236-30-0"><rect x="35" y="149" width="236" height="30"/></clipPath><clipPath id="mx-clip-35-179-236-30-0"><rect x="35" y="179" width="236" height="30"/></clipPath><clipPath id="mx-clip-35-209-236-30-0"><rect x="35" y="209" width="236" height="30"/></clipPath><clipPath id="mx-clip-35-239-236-30-0"><rect x="35" y="239" width="236" height="30"/></clipPath><clipPath id="mx-clip-35-269-236-30-0"><rect x="35" y="269" width="236" height="30"/></clipPath><clipPath id="mx-clip-480-30-29-30-0"><rect x="480" y="30" width="29" height="30"/></clipPath><clipPath id="mx-clip-515-30-235-30-0"><rect x="515" y="30" width="235" height="30"/></clipPath><clipPath id="mx-clip-480-60-29-30-0"><rect x="480" y="60" width="29" height="30"/></clipPath><clipPath id="mx-clip-515-60-235-30-0"><rect x="515" y="60" width="235" height="30"/></clipPath><clipPath id="mx-clip-480-90-29-30-0"><rect x="480" y="90" width="29" height="30"/></clipPath><clipPath id="mx-clip-515-90-235-30-0"><rect x="515" y="90" width="235" height="30"/></clipPath><clipPath id="mx-clip-515-120-235-29-0"><rect x="515" y="120" width="235" height="29"/></clipPath><clipPath id="mx-clip-515-149-235-30-0"><rect x="515" y="149" width="235" height="30"/></clipPath><clipPath id="mx-clip-515-179-235-30-0"><rect x="515" y="179" width="235" height="30"/></clipPath><clipPath id="mx-clip-515-209-235-30-0"><rect x="515" y="209" width="235" height="30"/></clipPath><clipPath id="mx-clip-515-239-235-30-0"><rect x="515" y="239" width="235" height="30"/></clipPath><clipPath id="mx-clip-210-429-29-30-0"><rect x="210" y="429" width="29" height="30"/></clipPath><clipPath id="mx-clip-245-429-245-30-0"><rect x="245" y="429" width="245" height="30"/></clipPath><clipPath id="mx-clip-210-459-29-30-0"><rect x="210" y="459" width="29" height="30"/></clipPath><clipPath id="mx-clip-245-459-245-30-0"><rect x="245" y="459" width="245" height="30"/></clipPath><clipPath id="mx-clip-245-489-245-29-0"><rect x="245" y="489" width="245" height="29"/></clipPath><clipPath id="mx-clip-210-518-29-30-0"><rect x="210" y="518" width="29" height="30"/></clipPath><clipPath id="mx-clip-245-518-245-30-0"><rect x="245" y="518" width="245" height="30"/></clipPath><clipPath id="mx-clip-245-548-245-30-0"><rect x="245" y="548" width="245" height="30"/></clipPath><clipPath id="mx-clip-245-578-245-30-0"><rect x="245" y="578" width="245" height="30"/></clipPath><clipPath id="mx-clip-245-608-245-30-0"><rect x="245" y="608" width="245" height="30"/></clipPath><clipPath id="mx-clip-245-638-245-30-0"><rect x="245" y="638" width="245" height="30"/></clipPath><clipPath id="mx-clip-245-668-245-30-0"><rect x="245" y="668" width="245" height="30"/></clipPath><clipPath id="mx-clip-245-698-245-30-0"><rect x="245" y="698" width="245" height="30"/></clipPath></defs><g><path d="M 0 30 L 0 0 L 271 0 L 271 30" fill="rgb(255, 255, 255)" stroke="rgb(0, 0, 0)" stroke-miterlimit="10" pointer-events="all"/><path d="M 0 30 L 0 309 L 271 309 L 271 30" fill="none" stroke="rgb(0, 0, 0)" stroke-miterlimit="10" pointer-events="none"/><path d="M 0 30 L 271 30" fill="none" stroke="rgb(0, 0, 0)" stroke-miterlimit="10" pointer-events="none"/><path d="M 29 30 L 29 60 L 29 90 L 29 120 L 29 149 L 29 179 L 29 209 L 29 239 L 29 269 L 29 299" fill="none" stroke="rgb(0, 0, 0)" stroke-miterlimit="10" pointer-events="none"/><g fill="rgb(0, 0, 0)" font-family="Helvetica" font-weight="bold" pointer-events="none" text-anchor="middle" font-size="12px"><text x="135" y="19.5">Article (게시글)</text></g><path d="M 0 30 M 271 30 M 271 60 L 0 60" fill="none" stroke="rgb(0, 0, 0)" stroke-linecap="square" stroke-miterlimit="10" pointer-events="none"/><path d="M 0 30 M 29 30 M 29 60 M 0 60" fill="none" stroke="rgb(0, 0, 0)" stroke-linecap="square" stroke-miterlimit="10" pointer-events="none"/><g fill="rgb(0, 0, 0)" font-family="Helvetica" font-weight="bold" pointer-events="none" clip-path="url(#mx-clip-0-30-29-30-0)" text-anchor="middle" font-size="12px"><text x="14" y="49.5">PK</text></g><path d="M 29 30 M 271 30 M 271 60 M 29 60" fill="none" stroke="rgb(0, 0, 0)" stroke-linecap="square" stroke-miterlimit="10" pointer-events="none"/><g fill="rgb(0, 0, 0)" font-family="Helvetica" font-weight="bold" pointer-events="none" clip-path="url(#mx-clip-35-30-236-30-0)" font-size="12px"><text x="36.5" y="49.5">id - bigint</text></g><path d="M 0 60 M 271 60 M 271 90 M 0 90" fill="none" stroke="rgb(0, 0, 0)" stroke-linecap="square" stroke-miterlimit="10" pointer-events="none"/><path d="M 0 60 M 29 60 M 29 90 M 0 90" fill="none" stroke="rgb(0, 0, 0)" stroke-linecap="square" stroke-miterlimit="10" pointer-events="none"/><g fill="rgb(0, 0, 0)" font-family="Helvetica" pointer-events="none" clip-path="url(#mx-clip-0-60-29-30-0)" text-anchor="middle" font-size="12px"><text x="14" y="79.5">FK</text></g><path d="M 29 60 M 271 60 M 271 90 M 29 90" fill="none" stroke="rgb(0, 0, 0)" stroke-linecap="square" stroke-miterlimit="10" pointer-events="none"/><g fill="rgb(0, 0, 0)" font-family="Helvetica" font-weight="bold" pointer-events="none" clip-path="url(#mx-clip-35-60-236-30-0)" font-size="12px"><text x="36.5" y="79.5">user_account_id (유저 계정 id) - bigint</text></g><path d="M 0 90 M 271 90 M 271 120 M 0 120" fill="none" stroke="rgb(0, 0, 0)" stroke-linecap="square" stroke-miterlimit="10" pointer-events="none"/><path d="M 0 90 M 29 90 M 29 120 M 0 120" fill="none" stroke="rgb(0, 0, 0)" stroke-linecap="square" stroke-miterlimit="10" pointer-events="none"/><path d="M 29 90 M 271 90 M 271 120 M 29 120" fill="none" stroke="rgb(0, 0, 0)" stroke-linecap="square" stroke-miterlimit="10" pointer-events="none"/><g fill="rgb(0, 0, 0)" font-family="Helvetica" font-weight="bold" pointer-events="none" clip-path="url(#mx-clip-35-90-236-30-0)" font-size="12px"><text x="36.5" y="109.5">title (제목) - varchar(255)</text></g><path d="M 0 120 M 271 120 M 271 149 M 0 149" fill="none" stroke="rgb(0, 0, 0)" stroke-linecap="square" stroke-miterlimit="10" pointer-events="none"/><path d="M 0 120 M 29 120 M 29 149 M 0 149" fill="none" stroke="rgb(0, 0, 0)" stroke-linecap="square" stroke-miterlimit="10" pointer-events="none"/><path d="M 29 120 M 271 120 M 271 149 M 29 149" fill="none" stroke="rgb(0, 0, 0)" stroke-linecap="square" stroke-miterlimit="10" pointer-events="none"/><g fill="rgb(0, 0, 0)" font-family="Helvetica" font-weight="bold" pointer-events="none" clip-path="url(#mx-clip-35-120-236-29-0)" font-size="12px"><text x="36.5" y="139">content (내용) - varchar(10000)</text></g><path d="M 0 149 M 271 149 M 271 179 M 0 179" fill="none" stroke="rgb(0, 0, 0)" stroke-linecap="square" stroke-miterlimit="10" pointer-events="none"/><path d="M 0 149 M 29 149 M 29 179 M 0 179" fill="none" stroke="rgb(0, 0, 0)" stroke-linecap="square" stroke-miterlimit="10" pointer-events="none"/><path d="M 29 149 M 271 149 M 271 179 M 29 179" fill="none" stroke="rgb(0, 0, 0)" stroke-linecap="square" stroke-miterlimit="10" pointer-events="none"/><g fill="rgb(0, 0, 0)" font-family="Helvetica" pointer-events="none" clip-path="url(#mx-clip-35-149-236-30-0)" font-size="12px"><text x="36.5" y="168.5">hashtag (해시태그) - varchar(255)</text></g><path d="M 0 179 M 271 179 M 271 209 M 0 209" fill="none" stroke="rgb(0, 0, 0)" stroke-linecap="square" stroke-miterlimit="10" pointer-events="none"/><path d="M 0 179 M 29 179 M 29 209 M 0 209" fill="none" stroke="rgb(0, 0, 0)" stroke-linecap="square" stroke-miterlimit="10" pointer-events="none"/><path d="M 29 179 M 271 179 M 271 209 M 29 209" fill="none" stroke="rgb(0, 0, 0)" stroke-linecap="square" stroke-miterlimit="10" pointer-events="none"/><g fill="rgb(0, 0, 0)" font-family="Helvetica" font-weight="bold" pointer-events="none" clip-path="url(#mx-clip-35-179-236-30-0)" font-size="12px"><text x="36.5" y="198.5">createdAt (생성일시) - datetime</text></g><path d="M 0 209 M 271 209 M 271 239 M 0 239" fill="none" stroke="rgb(0, 0, 0)" stroke-linecap="square" stroke-miterlimit="10" pointer-events="none"/><path d="M 0 209 M 29 209 M 29 239 M 0 239" fill="none" stroke="rgb(0, 0, 0)" stroke-linecap="square" stroke-miterlimit="10" pointer-events="none"/><path d="M 29 209 M 271 209 M 271 239 M 29 239" fill="none" stroke="rgb(0, 0, 0)" stroke-linecap="square" stroke-miterlimit="10" pointer-events="none"/><g fill="rgb(0, 0, 0)" font-family="Helvetica" font-weight="bold" pointer-events="none" clip-path="url(#mx-clip-35-209-236-30-0)" font-size="12px"><text x="36.5" y="228.5">createdBy (생성자) - varchar(100)</text></g><path d="M 0 239 M 271 239 M 271 269 M 0 269" fill="none" stroke="rgb(0, 0, 0)" stroke-linecap="square" stroke-miterlimit="10" pointer-events="none"/><path d="M 0 239 M 29 239 M 29 269 M 0 269" fill="none" stroke="rgb(0, 0, 0)" stroke-linecap="square" stroke-miterlimit="10" pointer-events="none"/><path d="M 29 239 M 271 239 M 271 269 M 29 269" fill="none" stroke="rgb(0, 0, 0)" stroke-linecap="square" stroke-miterlimit="10" pointer-events="none"/><g fill="rgb(0, 0, 0)" font-family="Helvetica" font-weight="bold" pointer-events="none" clip-path="url(#mx-clip-35-239-236-30-0)" font-size="12px"><text x="36.5" y="258.5">modifiedAt (수정일시) - datetime</text></g><path d="M 0 269 M 271 269 M 271 299 M 0 299" fill="none" stroke="rgb(0, 0, 0)" stroke-linecap="square" stroke-miterlimit="10" pointer-events="none"/><path d="M 0 269 M 29 269 M 29 299 M 0 299" fill="none" stroke="rgb(0, 0, 0)" stroke-linecap="square" stroke-miterlimit="10" pointer-events="none"/><path d="M 29 269 M 271 269 M 271 299 M 29 299" fill="none" stroke="rgb(0, 0, 0)" stroke-linecap="square" stroke-miterlimit="10" pointer-events="none"/><g fill="rgb(0, 0, 0)" font-family="Helvetica" font-weight="bold" pointer-events="none" clip-path="url(#mx-clip-35-269-236-30-0)" font-size="12px"><text x="36.5" y="288.5">modifiedBy (수정자) - varchar(100)</text></g><path d="M 480 30 L 480 0 L 750 0 L 750 30" fill="rgb(255, 255, 255)" stroke="rgb(0, 0, 0)" stroke-miterlimit="10" pointer-events="none"/><path d="M 480 30 L 480 279 L 750 279 L 750 30" fill="none" stroke="rgb(0, 0, 0)" stroke-miterlimit="10" pointer-events="none"/><path d="M 480 30 L 750 30" fill="none" stroke="rgb(0, 0, 0)" stroke-miterlimit="10" pointer-events="none"/><path d="M 509 30 L 509 60 L 509 90 L 509 120 L 509 149 L 509 179 L 509 209 L 509 239 L 509 269" fill="none" stroke="rgb(0, 0, 0)" stroke-miterlimit="10" pointer-events="none"/><g fill="rgb(0, 0, 0)" font-family="Helvetica" font-weight="bold" pointer-events="none" text-anchor="middle" font-size="12px"><text x="614.5" y="19.5">Article (게시글)</text></g><path d="M 480 30 M 750 30 M 750 60 L 480 60" fill="none" stroke="rgb(0, 0, 0)" stroke-linecap="square" stroke-miterlimit="10" pointer-events="none"/><path d="M 480 30 M 509 30 M 509 60 M 480 60" fill="none" stroke="rgb(0, 0, 0)" stroke-linecap="square" stroke-miterlimit="10" pointer-events="none"/><g fill="rgb(0, 0, 0)" font-family="Helvetica" font-weight="bold" pointer-events="none" clip-path="url(#mx-clip-480-30-29-30-0)" text-anchor="middle" font-size="12px"><text x="494" y="49.5">PK</text></g><path d="M 509 30 M 750 30 M 750 60 M 509 60" fill="none" stroke="rgb(0, 0, 0)" stroke-linecap="square" stroke-miterlimit="10" pointer-events="none"/><g fill="rgb(0, 0, 0)" font-family="Helvetica" font-weight="bold" pointer-events="none" clip-path="url(#mx-clip-515-30-235-30-0)" font-size="12px"><text x="516.5" y="49.5">id - bigint</text></g><path d="M 480 60 M 750 60 M 750 90 M 480 90" fill="none" stroke="rgb(0, 0, 0)" stroke-linecap="square" stroke-miterlimit="10" pointer-events="none"/><path d="M 480 60 M 509 60 M 509 90 M 480 90" fill="none" stroke="rgb(0, 0, 0)" stroke-linecap="square" stroke-miterlimit="10" pointer-events="none"/><g fill="rgb(0, 0, 0)" font-family="Helvetica" pointer-events="none" clip-path="url(#mx-clip-480-60-29-30-0)" text-anchor="middle" font-size="12px"><text x="494" y="79.5">FK</text></g><path d="M 509 60 M 750 60 M 750 90 M 509 90" fill="none" stroke="rgb(0, 0, 0)" stroke-linecap="square" stroke-miterlimit="10" pointer-events="none"/><g fill="rgb(0, 0, 0)" font-family="Helvetica" font-weight="bold" pointer-events="none" clip-path="url(#mx-clip-515-60-235-30-0)" font-size="12px"><text x="516.5" y="79.5">article_id (게시글 id) - bigint</text></g><path d="M 480 90 M 750 90 M 750 120 M 480 120" fill="none" stroke="rgb(0, 0, 0)" stroke-linecap="square" stroke-miterlimit="10" pointer-events="none"/><path d="M 480 90 M 509 90 M 509 120 M 480 120" fill="none" stroke="rgb(0, 0, 0)" stroke-linecap="square" stroke-miterlimit="10" pointer-events="none"/><g fill="rgb(0, 0, 0)" font-family="Helvetica" pointer-events="none" clip-path="url(#mx-clip-480-90-29-30-0)" text-anchor="middle" font-size="12px"><text x="494" y="109.5">FK</text></g><path d="M 509 90 M 750 90 M 750 120 M 509 120" fill="none" stroke="rgb(0, 0, 0)" stroke-linecap="square" stroke-miterlimit="10" pointer-events="none"/><g fill="rgb(0, 0, 0)" font-family="Helvetica" font-weight="bold" pointer-events="none" clip-path="url(#mx-clip-515-90-235-30-0)" font-size="12px"><text x="516.5" y="109.5">user_account_id (유저 계정 id) - bigint</text></g><path d="M 480 120 M 750 120 M 750 149 M 480 149" fill="none" stroke="rgb(0, 0, 0)" stroke-linecap="square" stroke-miterlimit="10" pointer-events="none"/><path d="M 480 120 M 509 120 M 509 149 M 480 149" fill="none" stroke="rgb(0, 0, 0)" stroke-linecap="square" stroke-miterlimit="10" pointer-events="none"/><path d="M 509 120 M 750 120 M 750 149 M 509 149" fill="none" stroke="rgb(0, 0, 0)" stroke-linecap="square" stroke-miterlimit="10" pointer-events="none"/><g fill="rgb(0, 0, 0)" font-family="Helvetica" font-weight="bold" pointer-events="none" clip-path="url(#mx-clip-515-120-235-29-0)" font-size="12px"><text x="516.5" y="139">content (내용) - varchar(500)</text></g><path d="M 480 149 M 750 149 M 750 179 M 480 179" fill="none" stroke="rgb(0, 0, 0)" stroke-linecap="square" stroke-miterlimit="10" pointer-events="none"/><path d="M 480 149 M 509 149 M 509 179 M 480 179" fill="none" stroke="rgb(0, 0, 0)" stroke-linecap="square" stroke-miterlimit="10" pointer-events="none"/><path d="M 509 149 M 750 149 M 750 179 M 509 179" fill="none" stroke="rgb(0, 0, 0)" stroke-linecap="square" stroke-miterlimit="10" pointer-events="none"/><g fill="rgb(0, 0, 0)" font-family="Helvetica" font-weight="bold" pointer-events="none" clip-path="url(#mx-clip-515-149-235-30-0)" font-size="12px"><text x="516.5" y="168.5">createdAt (생성일시) - datetime</text></g><path d="M 480 179 M 750 179 M 750 209 M 480 209" fill="none" stroke="rgb(0, 0, 0)" stroke-linecap="square" stroke-miterlimit="10" pointer-events="none"/><path d="M 480 179 M 509 179 M 509 209 M 480 209" fill="none" stroke="rgb(0, 0, 0)" stroke-linecap="square" stroke-miterlimit="10" pointer-events="none"/><path d="M 509 179 M 750 179 M 750 209 M 509 209" fill="none" stroke="rgb(0, 0, 0)" stroke-linecap="square" stroke-miterlimit="10" pointer-events="none"/><g fill="rgb(0, 0, 0)" font-family="Helvetica" font-weight="bold" pointer-events="none" clip-path="url(#mx-clip-515-179-235-30-0)" font-size="12px"><text x="516.5" y="198.5">createdBy (생성자) - varchar(100)</text></g><path d="M 480 209 M 750 209 M 750 239 M 480 239" fill="none" stroke="rgb(0, 0, 0)" stroke-linecap="square" stroke-miterlimit="10" pointer-events="none"/><path d="M 480 209 M 509 209 M 509 239 M 480 239" fill="none" stroke="rgb(0, 0, 0)" stroke-linecap="square" stroke-miterlimit="10" pointer-events="none"/><path d="M 509 209 M 750 209 M 750 239 M 509 239" fill="none" stroke="rgb(0, 0, 0)" stroke-linecap="square" stroke-miterlimit="10" pointer-events="none"/><g fill="rgb(0, 0, 0)" font-family="Helvetica" font-weight="bold" pointer-events="none" clip-path="url(#mx-clip-515-209-235-30-0)" font-size="12px"><text x="516.5" y="228.5">modifiedAt (수정일시) - datetime</text></g><path d="M 480 239 M 750 239 M 750 269 M 480 269" fill="none" stroke="rgb(0, 0, 0)" stroke-linecap="square" stroke-miterlimit="10" pointer-events="none"/><path d="M 480 239 M 509 239 M 509 269 M 480 269" fill="none" stroke="rgb(0, 0, 0)" stroke-linecap="square" stroke-miterlimit="10" pointer-events="none"/><path d="M 509 239 M 750 239 M 750 269 M 509 269" fill="none" stroke="rgb(0, 0, 0)" stroke-linecap="square" stroke-miterlimit="10" pointer-events="none"/><g fill="rgb(0, 0, 0)" font-family="Helvetica" font-weight="bold" pointer-events="none" clip-path="url(#mx-clip-515-239-235-30-0)" font-size="12px"><text x="516.5" y="258.5">modifiedBy (수정자) - varchar(100)</text></g><path d="M 271 45 L 301 45 L 450 75 L 480 75" fill="none" stroke="rgb(0, 0, 0)" stroke-miterlimit="10" pointer-events="none"/><path d="M 275 41 L 275 49 M 279 41 L 279 49" fill="none" stroke="rgb(0, 0, 0)" stroke-miterlimit="10" pointer-events="none"/><ellipse cx="468" cy="75" rx="3" ry="3" fill="#ffffff" stroke="rgb(0, 0, 0)" pointer-events="none"/><path d="M 480 71 L 472 75 L 480 79" fill="none" stroke="rgb(0, 0, 0)" stroke-miterlimit="10" pointer-events="none"/><path d="M 210 429 L 210 399 L 490 399 L 490 429" fill="rgb(255, 255, 255)" stroke="rgb(0, 0, 0)" stroke-miterlimit="10" pointer-events="none"/><path d="M 210 429 L 210 738 L 490 738 L 490 429" fill="none" stroke="rgb(0, 0, 0)" stroke-miterlimit="10" pointer-events="none"/><path d="M 210 429 L 490 429" fill="none" stroke="rgb(0, 0, 0)" stroke-miterlimit="10" pointer-events="none"/><path d="M 239 429 L 239 459 L 239 489 L 239 518 L 239 548 L 239 578 L 239 608 L 239 638 L 239 668 L 239 698 L 239 728" fill="none" stroke="rgb(0, 0, 0)" stroke-miterlimit="10" pointer-events="none"/><g fill="rgb(0, 0, 0)" font-family="Helvetica" font-weight="bold" pointer-events="none" text-anchor="middle" font-size="12px"><text x="349.5" y="418.5">user_account (유저 계정)</text></g><path d="M 210 429 M 490 429 M 490 459 L 210 459" fill="none" stroke="rgb(0, 0, 0)" stroke-linecap="square" stroke-miterlimit="10" pointer-events="none"/><path d="M 210 429 M 239 429 M 239 459 M 210 459" fill="none" stroke="rgb(0, 0, 0)" stroke-linecap="square" stroke-miterlimit="10" pointer-events="none"/><g fill="rgb(0, 0, 0)" font-family="Helvetica" font-weight="bold" pointer-events="none" clip-path="url(#mx-clip-210-429-29-30-0)" text-anchor="middle" font-size="12px"><text x="224" y="448.5">PK</text></g><path d="M 239 429 M 490 429 M 490 459 M 239 459" fill="none" stroke="rgb(0, 0, 0)" stroke-linecap="square" stroke-miterlimit="10" pointer-events="none"/><g fill="rgb(0, 0, 0)" font-family="Helvetica" font-weight="bold" pointer-events="none" clip-path="url(#mx-clip-245-429-245-30-0)" font-size="12px"><text x="246.5" y="448.5">id - bigint</text></g><path d="M 210 459 M 490 459 M 490 489 M 210 489" fill="none" stroke="rgb(0, 0, 0)" stroke-linecap="square" stroke-miterlimit="10" pointer-events="none"/><path d="M 210 459 M 239 459 M 239 489 M 210 489" fill="none" stroke="rgb(0, 0, 0)" stroke-linecap="square" stroke-miterlimit="10" pointer-events="none"/><g fill="rgb(0, 0, 0)" font-family="Helvetica" pointer-events="none" clip-path="url(#mx-clip-210-459-29-30-0)" text-anchor="middle" font-size="12px"><text x="224" y="478.5">UK</text></g><path d="M 239 459 M 490 459 M 490 489 M 239 489" fill="none" stroke="rgb(0, 0, 0)" stroke-linecap="square" stroke-miterlimit="10" pointer-events="none"/><g fill="rgb(0, 0, 0)" font-family="Helvetica" font-weight="bold" pointer-events="none" clip-path="url(#mx-clip-245-459-245-30-0)" font-size="12px"><text x="246.5" y="478.5">userId (유저 id) - varchar(50)</text></g><path d="M 210 489 M 490 489 M 490 518 M 210 518" fill="none" stroke="rgb(0, 0, 0)" stroke-linecap="square" stroke-miterlimit="10" pointer-events="none"/><path d="M 210 489 M 239 489 M 239 518 M 210 518" fill="none" stroke="rgb(0, 0, 0)" stroke-linecap="square" stroke-miterlimit="10" pointer-events="none"/><path d="M 239 489 M 490 489 M 490 518 M 239 518" fill="none" stroke="rgb(0, 0, 0)" stroke-linecap="square" stroke-miterlimit="10" pointer-events="none"/><g fill="rgb(0, 0, 0)" font-family="Helvetica" font-weight="bold" pointer-events="none" clip-path="url(#mx-clip-245-489-245-29-0)" font-size="12px"><text x="246.5" y="508">user_password (유저암호) - varchar(255)</text></g><path d="M 210 518 M 490 518 M 490 548 M 210 548" fill="none" stroke="rgb(0, 0, 0)" stroke-linecap="square" stroke-miterlimit="10" pointer-events="none"/><path d="M 210 518 M 239 518 M 239 548 M 210 548" fill="none" stroke="rgb(0, 0, 0)" stroke-linecap="square" stroke-miterlimit="10" pointer-events="none"/><g fill="rgb(0, 0, 0)" font-family="Helvetica" pointer-events="none" clip-path="url(#mx-clip-210-518-29-30-0)" text-anchor="middle" font-size="12px"><text x="224" y="537.5">UK</text></g><path d="M 239 518 M 490 518 M 490 548 M 239 548" fill="none" stroke="rgb(0, 0, 0)" stroke-linecap="square" stroke-miterlimit="10" pointer-events="none"/><g fill="rgb(0, 0, 0)" font-family="Helvetica" pointer-events="none" clip-path="url(#mx-clip-245-518-245-30-0)" font-size="12px"><text x="246.5" y="537.5">email (이메일) - varchar(100)</text></g><path d="M 210 548 M 490 548 M 490 578 M 210 578" fill="none" stroke="rgb(0, 0, 0)" stroke-linecap="square" stroke-miterlimit="10" pointer-events="none"/><path d="M 210 548 M 239 548 M 239 578 M 210 578" fill="none" stroke="rgb(0, 0, 0)" stroke-linecap="square" stroke-miterlimit="10" pointer-events="none"/><path d="M 239 548 M 490 548 M 490 578 M 239 578" fill="none" stroke="rgb(0, 0, 0)" stroke-linecap="square" stroke-miterlimit="10" pointer-events="none"/><g fill="rgb(0, 0, 0)" font-family="Helvetica" pointer-events="none" clip-path="url(#mx-clip-245-548-245-30-0)" font-size="12px"><text x="246.5" y="567.5">nickname (닉네임) - varchar(100)</text></g><path d="M 210 578 M 490 578 M 490 608 M 210 608" fill="none" stroke="rgb(0, 0, 0)" stroke-linecap="square" stroke-miterlimit="10" pointer-events="none"/><path d="M 210 578 M 239 578 M 239 608 M 210 608" fill="none" stroke="rgb(0, 0, 0)" stroke-linecap="square" stroke-miterlimit="10" pointer-events="none"/><path d="M 239 578 M 490 578 M 490 608 M 239 608" fill="none" stroke="rgb(0, 0, 0)" stroke-linecap="square" stroke-miterlimit="10" pointer-events="none"/><g fill="rgb(0, 0, 0)" font-family="Helvetica" pointer-events="none" clip-path="url(#mx-clip-245-578-245-30-0)" font-size="12px"><text x="246.5" y="597.5">memo (메모) - varchar(255)</text></g><path d="M 210 608 M 490 608 M 490 638 M 210 638" fill="none" stroke="rgb(0, 0, 0)" stroke-linecap="square" stroke-miterlimit="10" pointer-events="none"/><path d="M 210 608 M 239 608 M 239 638 M 210 638" fill="none" stroke="rgb(0, 0, 0)" stroke-linecap="square" stroke-miterlimit="10" pointer-events="none"/><path d="M 239 608 M 490 608 M 490 638 M 239 638" fill="none" stroke="rgb(0, 0, 0)" stroke-linecap="square" stroke-miterlimit="10" pointer-events="none"/><g fill="rgb(0, 0, 0)" font-family="Helvetica" font-weight="bold" pointer-events="none" clip-path="url(#mx-clip-245-608-245-30-0)" font-size="12px"><text x="246.5" y="627.5">createdAt (생성일시) - datetime</text></g><path d="M 210 638 M 490 638 M 490 668 M 210 668" fill="none" stroke="rgb(0, 0, 0)" stroke-linecap="square" stroke-miterlimit="10" pointer-events="none"/><path d="M 210 638 M 239 638 M 239 668 M 210 668" fill="none" stroke="rgb(0, 0, 0)" stroke-linecap="square" stroke-miterlimit="10" pointer-events="none"/><path d="M 239 638 M 490 638 M 490 668 M 239 668" fill="none" stroke="rgb(0, 0, 0)" stroke-linecap="square" stroke-miterlimit="10" pointer-events="none"/><g fill="rgb(0, 0, 0)" font-family="Helvetica" font-weight="bold" pointer-events="none" clip-path="url(#mx-clip-245-638-245-30-0)" font-size="12px"><text x="246.5" y="657.5">createdBy (생성자) - varchar(100)</text></g><path d="M 210 668 M 490 668 M 490 698 M 210 698" fill="none" stroke="rgb(0, 0, 0)" stroke-linecap="square" stroke-miterlimit="10" pointer-events="none"/><path d="M 210 668 M 239 668 M 239 698 M 210 698" fill="none" stroke="rgb(0, 0, 0)" stroke-linecap="square" stroke-miterlimit="10" pointer-events="none"/><path d="M 239 668 M 490 668 M 490 698 M 239 698" fill="none" stroke="rgb(0, 0, 0)" stroke-linecap="square" stroke-miterlimit="10" pointer-events="none"/><g fill="rgb(0, 0, 0)" font-family="Helvetica" font-weight="bold" pointer-events="none" clip-path="url(#mx-clip-245-668-245-30-0)" font-size="12px"><text x="246.5" y="687.5">modifiedAt (수정일시) - datetime</text></g><path d="M 210 698 M 490 698 M 490 728 M 210 728" fill="none" stroke="rgb(0, 0, 0)" stroke-linecap="square" stroke-miterlimit="10" pointer-events="none"/><path d="M 210 698 M 239 698 M 239 728 M 210 728" fill="none" stroke="rgb(0, 0, 0)" stroke-linecap="square" stroke-miterlimit="10" pointer-events="none"/><path d="M 239 698 M 490 698 M 490 728 M 239 728" fill="none" stroke="rgb(0, 0, 0)" stroke-linecap="square" stroke-miterlimit="10" pointer-events="none"/><g fill="rgb(0, 0, 0)" font-family="Helvetica" font-weight="bold" pointer-events="none" clip-path="url(#mx-clip-245-698-245-30-0)" font-size="12px"><text x="246.5" y="717.5">modifiedBy (수정자) - varchar(100)</text></g><path d="M 210 444 L 170 444 L 170 339 L 320 339 L 320 75 L 271 75" fill="none" stroke="rgb(0, 0, 0)" stroke-miterlimit="10" pointer-events="none"/><path d="M 206 448 L 206 440 M 202 448 L 202 440" fill="none" stroke="rgb(0, 0, 0)" stroke-miterlimit="10" pointer-events="none"/><ellipse cx="283" cy="75" rx="3" ry="3" fill="#ffffff" stroke="rgb(0, 0, 0)" pointer-events="none"/><path d="M 271 79 L 279 75 L 271 71" fill="none" stroke="rgb(0, 0, 0)" stroke-miterlimit="10" pointer-events="none"/><path d="M 490 444 L 530 444 L 530 349 L 430 349 L 430 85 L 480 85 L 480 105" fill="none" stroke="rgb(0, 0, 0)" stroke-miterlimit="10" pointer-events="none"/><path d="M 494 440 L 494 448 M 498 440 L 498 448" fill="none" stroke="rgb(0, 0, 0)" stroke-miterlimit="10" pointer-events="none"/><ellipse cx="480" cy="93" rx="3" ry="3" fill="#ffffff" stroke="rgb(0, 0, 0)" pointer-events="none"/><path d="M 484 105 L 480 97 L 476 105" fill="none" stroke="rgb(0, 0, 0)" stroke-miterlimit="10" pointer-events="none"/></g></svg>