<?xml version="1.0" encoding="UTF-8"?>
<!-- Do not edit this file with editors other than diagrams.net -->
<!DOCTYPE svg PUBLIC "-//W3C//DTD SVG 1.1//EN" "http://www.w3.org/Graphics/SVG/1.1/DTD/svg11.dtd">
<svg xmlns="http://www.w3.org/2000/svg" xmlns:xlink="http://www.w3.org/1999/xlink" version="1.1" width="580px" height="280px" viewBox="-0.5 -0.5 580 280" content="&lt;mxfile host=&quot;app.diagrams.net&quot; modified=&quot;2022-07-14T07:39:39.165Z&quot; agent=&quot;5.0 (Macintosh; Intel Mac OS X 10_15_7) AppleWebKit/537.36 (KHTML, like Gecko) Chrome/103.0.0.0 Safari/537.36&quot; etag=&quot;q1bI8JbZhk6BslBIwuz_&quot; version=&quot;20.0.4&quot; type=&quot;github&quot;&gt;&lt;diagram id=&quot;R2lEEEUBdFMjLlhIrx00&quot; name=&quot;Page-1&quot;&gt;7V1tc5s4EP41mkk/JIMBx/ZHYzvt3CXTTNL2Zu7LjWJk0BUjn1Acu7/+JJCMsbCDi98CdNwJLEIvu4+eZdcSBtZguvhM4cx/IC4KgGm4C2ANgWm2DMvif4RkmUhuO71E4FHsykKp4Bn/QupOKX3FLooyBRkhAcOzrHBMwhCNWUYGKSVv2WITEmRbnUEPaYLnMQx06V/YZX4i7baNVP4FYc9XLbcMeWUKVWEpiHzokreMCC3YHQmZ7OIjolMYopDxKw+Q/kQUtEc+Y2KkfWDe8c9ElL7xCPECBGc4uhmTKRePI17kbgKnOBBqXqvIkRXx5qwRsAaUEJYcTRcDFAhbKTMkfbrbcnWlByrqLXDD4Hq+vP9psPDLm/WDPTx4j52Xa1OiYQ6DV6ngPmV4zLVtGldg1AeOCboDMBqArgN6g1jSBV3jk9QhWyrDcHXOxCGDL0LkRAxSJvFjGVzAEcEgDvngrWErPg8COItwXDyR+Dhw7+GSvDJVkTpzJniB3KcEPqIsR9I9r0ycisqFIZ5lZ8RlGGAv5Mdjrh3RokNRxPtyDyMmS+j6kyqdI8rQYk0k9fkZkSlidMmLqKvqluXG+VuKTFMh019DpakmHZRQ81Z1r5p74rMHhl5sia3tGVp7K9l6e5aRbQ4GXCkhZMghr6EbreOGH6wNNRXFaNoHWbaGrK2Q4UZgGAbpiDfBISzsUjL7BqmHmBTMCBa2Hc1RMmNjGOAgGJCACIyFJESqWDzutsM/XBMD46YN2rwDA37eSs/5RxSnbEDCiFGOVdEU4pB5QwI2DiMz2U6AJqobVKpZHL8QxjgBbAPY7in4PuyWWWu+h7JNq6+DLGPuvW3b1mz7+Oc+1iV8sJMgJl8fuy4KE3oQDgOmFs8xZq4FVlrfNMcmKRS1iF3YIusm6O1ngZxpvmdtp5jFt5qleXnTuOb/X7AnZsjlmV1xf1LWiWZwjEPvPrnz9iS4WGStuG5YxeEHwkmR6k4BlE6d6d44Jt3fnp3uu6Vse6JZX1T/ncL6rzy59zS7MszUo/8A9I34id8B/T7o9z5J2p9DOvYhvTLb7e1BwIch/4ODpsrM//e/PX/231e69Kb97388P/34/hVf6xFkQ/yHIf5eQeI3dwSTRYk/17TlQriz8f5OmJam/V3a3p/2N2s7wYTVgzeRmUnSXFeC7rsmcGzhAHp5vN8y+L8qMn9J2OxJ/CVgVKS6E+BIDw0b4j8M8bdaOSA61iN/rm3LRXOXxfy3hdVfoQf+XE3ocZwPI59BL2H+Iei1JfPLZP8QdC2V9e8Ap1uVGODgyKndU78eOjbkfyDyt89N/uqr3kqwf6+w/qvO/q2WZtYxRbxJt89UykfQ/TA+sAGfPCIGGAIn/f5XOQCX38bwFF0gLo4SBhRHUe08QctsXMGxXEHn7K6gXHbvslzBCqmNL2jpqT3pC5zlDl8wAj0jJx/0IWOA33EDeyCofn5Azys2fuAwfsA0zu4HyiX7LswPtAsboPJ+QE/0TYmLJzgTFHRBr6u+EG43QcFv4Kh+3qDcmpHGG+zwBtbZvUG57N+FeYNuYQNU3RuYeuJPeYO1sED3BrUPC4pDqHaOwNSzjs0Ok8I4sRWv773DRH2LUIkdJvnIqnXiMR9gu6fgRe4wye+ynnf8oDtMdkO3eebI2SdWix0mZXFRvweJJr94LLo/5Q6T/C7r6cW7S6T7ohZoEowrVegJRpg8/v8T0/yuCCCuW8WVVfEFB0dQ/RxBk1o8liM4+46TnC1pFzjli+r/YJnFD7/nxNIzi3ttOmnXKJu4B2xqt+fEqvVbRY7K/effdGKVi/Aui/ytWr5EJF8VenTXLDw+PIxqFwhYzTtHjuYMzr4JxfqgLx3ZjdTGGVh6hNesPD4ogmrnB+xy+9UaP3DJO1Bsff3IBc75ggZYIbXxA7ap2bVZeVzUG+yBo/p5g+aFVMfyBuffh2JX6ZVUdvGl35X3Bnrqr1l5fFgI1c8RFEgPIddDSudc05gtn1AAGSbhKL2SWCZZZ9zio3d8Ng1AsrALhW5f/KoBPx09/UKUfCMPMFwCuTo5vTaFofs1hg0VI0buVq6Q2ovIKx3Lbu7cOcKUb9pK9HJyicEWZZnVzyasG3ElpLGS5ijT4R1IeSTx2g2FQauTXdVsGxvoSMYu70qRoVVkb1RkbVaU6Ear6H2I8dP0pxmS4unvaVij/wE=&lt;/diagram&gt;&lt;/mxfile&gt;" resource="https://app.diagrams.net/?src=about#H95twan%2Fproject-board%2Ffeature%252F%252310%2Fdocument%2Fboard-erd.svg"><defs><clipPath id="mx-clip-0-30-29-30-0"><rect x="0" y="30" width="29" height="30"/></clipPath><clipPath id="mx-clip-35-30-215-30-0"><rect x="35" y="30" width="215" height="30"/></clipPath><clipPath id="mx-clip-35-60-215-30-0"><rect x="35" y="60" width="215" height="30"/></clipPath><clipPath id="mx-clip-35-90-215-29-0"><rect x="35" y="90" width="215" height="29"/></clipPath><clipPath id="mx-clip-35-119-215-30-0"><rect x="35" y="119" width="215" height="30"/></clipPath><clipPath id="mx-clip-35-149-215-30-0"><rect x="35" y="149" width="215" height="30"/></clipPath><clipPath id="mx-clip-35-179-215-30-0"><rect x="35" y="179" width="215" height="30"/></clipPath><clipPath id="mx-clip-35-209-215-30-0"><rect x="35" y="209" width="215" height="30"/></clipPath><clipPath id="mx-clip-35-239-215-30-0"><rect x="35" y="239" width="215" height="30"/></clipPath><clipPath id="mx-clip-329-30-29-30-0"><rect x="329" y="30" width="29" height="30"/></clipPath><clipPath id="mx-clip-364-30-215-30-0"><rect x="364" y="30" width="215" height="30"/></clipPath><clipPath id="mx-clip-329-60-29-30-0"><rect x="329" y="60" width="29" height="30"/></clipPath><clipPath id="mx-clip-364-60-215-30-0"><rect x="364" y="60" width="215" height="30"/></clipPath><clipPath id="mx-clip-364-90-215-29-0"><rect x="364" y="90" width="215" height="29"/></clipPath><clipPath id="mx-clip-364-119-215-30-0"><rect x="364" y="119" width="215" height="30"/></clipPath><clipPath id="mx-clip-364-149-215-30-0"><rect x="364" y="149" width="215" height="30"/></clipPath><clipPath id="mx-clip-364-179-215-30-0"><rect x="364" y="179" width="215" height="30"/></clipPath><clipPath id="mx-clip-364-209-215-30-0"><rect x="364" y="209" width="215" height="30"/></clipPath></defs><g><path d="M 0 30 L 0 0 L 250 0 L 250 30" fill="rgb(255, 255, 255)" stroke="rgb(0, 0, 0)" stroke-miterlimit="10" pointer-events="all"/><path d="M 0 30 L 0 279 L 250 279 L 250 30" fill="none" stroke="rgb(0, 0, 0)" stroke-miterlimit="10" pointer-events="none"/><path d="M 0 30 L 250 30" fill="none" stroke="rgb(0, 0, 0)" stroke-miterlimit="10" pointer-events="none"/><path d="M 29 30 L 29 60 L 29 90 L 29 119 L 29 149 L 29 179 L 29 209 L 29 239 L 29 269" fill="none" stroke="rgb(0, 0, 0)" stroke-miterlimit="10" pointer-events="none"/><g fill="rgb(0, 0, 0)" font-family="Helvetica" font-weight="bold" pointer-events="none" text-anchor="middle" font-size="12px"><text x="124.5" y="19.5">Article (게시글)</text></g><path d="M 0 30 M 250 30 M 250 60 L 0 60" fill="none" stroke="rgb(0, 0, 0)" stroke-linecap="square" stroke-miterlimit="10" pointer-events="none"/><path d="M 0 30 M 29 30 M 29 60 M 0 60" fill="none" stroke="rgb(0, 0, 0)" stroke-linecap="square" stroke-miterlimit="10" pointer-events="none"/><g fill="rgb(0, 0, 0)" font-family="Helvetica" font-weight="bold" pointer-events="none" clip-path="url(#mx-clip-0-30-29-30-0)" text-anchor="middle" font-size="12px"><text x="14" y="49.5">PK</text></g><path d="M 29 30 M 250 30 M 250 60 M 29 60" fill="none" stroke="rgb(0, 0, 0)" stroke-linecap="square" stroke-miterlimit="10" pointer-events="none"/><g fill="rgb(0, 0, 0)" font-family="Helvetica" font-weight="bold" pointer-events="none" clip-path="url(#mx-clip-35-30-215-30-0)" font-size="12px"><text x="36.5" y="49.5">id - bigint</text></g><path d="M 0 60 M 250 60 M 250 90 M 0 90" fill="none" stroke="rgb(0, 0, 0)" stroke-linecap="square" stroke-miterlimit="10" pointer-events="none"/><path d="M 0 60 M 29 60 M 29 90 M 0 90" fill="none" stroke="rgb(0, 0, 0)" stroke-linecap="square" stroke-miterlimit="10" pointer-events="none"/><path d="M 29 60 M 250 60 M 250 90 M 29 90" fill="none" stroke="rgb(0, 0, 0)" stroke-linecap="square" stroke-miterlimit="10" pointer-events="none"/><g fill="rgb(0, 0, 0)" font-family="Helvetica" font-weight="bold" pointer-events="none" clip-path="url(#mx-clip-35-60-215-30-0)" font-size="12px"><text x="36.5" y="79.5">title (제목) - varchar(255)</text></g><path d="M 0 90 M 250 90 M 250 119 M 0 119" fill="none" stroke="rgb(0, 0, 0)" stroke-linecap="square" stroke-miterlimit="10" pointer-events="none"/><path d="M 0 90 M 29 90 M 29 119 M 0 119" fill="none" stroke="rgb(0, 0, 0)" stroke-linecap="square" stroke-miterlimit="10" pointer-events="none"/><path d="M 29 90 M 250 90 M 250 119 M 29 119" fill="none" stroke="rgb(0, 0, 0)" stroke-linecap="square" stroke-miterlimit="10" pointer-events="none"/><g fill="rgb(0, 0, 0)" font-family="Helvetica" font-weight="bold" pointer-events="none" clip-path="url(#mx-clip-35-90-215-29-0)" font-size="12px"><text x="36.5" y="109">content (내용) - varchar(10000)</text></g><path d="M 0 119 M 250 119 M 250 149 M 0 149" fill="none" stroke="rgb(0, 0, 0)" stroke-linecap="square" stroke-miterlimit="10" pointer-events="none"/><path d="M 0 119 M 29 119 M 29 149 M 0 149" fill="none" stroke="rgb(0, 0, 0)" stroke-linecap="square" stroke-miterlimit="10" pointer-events="none"/><path d="M 29 119 M 250 119 M 250 149 M 29 149" fill="none" stroke="rgb(0, 0, 0)" stroke-linecap="square" stroke-miterlimit="10" pointer-events="none"/><g fill="rgb(0, 0, 0)" font-family="Helvetica" pointer-events="none" clip-path="url(#mx-clip-35-119-215-30-0)" font-size="12px"><text x="36.5" y="138.5">hashtag (해시태그) - varchar(255)</text></g><path d="M 0 149 M 250 149 M 250 179 M 0 179" fill="none" stroke="rgb(0, 0, 0)" stroke-linecap="square" stroke-miterlimit="10" pointer-events="none"/><path d="M 0 149 M 29 149 M 29 179 M 0 179" fill="none" stroke="rgb(0, 0, 0)" stroke-linecap="square" stroke-miterlimit="10" pointer-events="none"/><path d="M 29 149 M 250 149 M 250 179 M 29 179" fill="none" stroke="rgb(0, 0, 0)" stroke-linecap="square" stroke-miterlimit="10" pointer-events="none"/><g fill="rgb(0, 0, 0)" font-family="Helvetica" font-weight="bold" pointer-events="none" clip-path="url(#mx-clip-35-149-215-30-0)" font-size="12px"><text x="36.5" y="168.5">createdAt (생성일시) - datetime</text></g><path d="M 0 179 M 250 179 M 250 209 M 0 209" fill="none" stroke="rgb(0, 0, 0)" stroke-linecap="square" stroke-miterlimit="10" pointer-events="none"/><path d="M 0 179 M 29 179 M 29 209 M 0 209" fill="none" stroke="rgb(0, 0, 0)" stroke-linecap="square" stroke-miterlimit="10" pointer-events="none"/><path d="M 29 179 M 250 179 M 250 209 M 29 209" fill="none" stroke="rgb(0, 0, 0)" stroke-linecap="square" stroke-miterlimit="10" pointer-events="none"/><g fill="rgb(0, 0, 0)" font-family="Helvetica" font-weight="bold" pointer-events="none" clip-path="url(#mx-clip-35-179-215-30-0)" font-size="12px"><text x="36.5" y="198.5">createdBy (생성자) - varchar(100)</text></g><path d="M 0 209 M 250 209 M 250 239 M 0 239" fill="none" stroke="rgb(0, 0, 0)" stroke-linecap="square" stroke-miterlimit="10" pointer-events="none"/><path d="M 0 209 M 29 209 M 29 239 M 0 239" fill="none" stroke="rgb(0, 0, 0)" stroke-linecap="square" stroke-miterlimit="10" pointer-events="none"/><path d="M 29 209 M 250 209 M 250 239 M 29 239" fill="none" stroke="rgb(0, 0, 0)" stroke-linecap="square" stroke-miterlimit="10" pointer-events="none"/><g fill="rgb(0, 0, 0)" font-family="Helvetica" font-weight="bold" pointer-events="none" clip-path="url(#mx-clip-35-209-215-30-0)" font-size="12px"><text x="36.5" y="228.5">modifiedAt (수정일시) - datetime</text></g><path d="M 0 239 M 250 239 M 250 269 M 0 269" fill="none" stroke="rgb(0, 0, 0)" stroke-linecap="square" stroke-miterlimit="10" pointer-events="none"/><path d="M 0 239 M 29 239 M 29 269 M 0 269" fill="none" stroke="rgb(0, 0, 0)" stroke-linecap="square" stroke-miterlimit="10" pointer-events="none"/><path d="M 29 239 M 250 239 M 250 269 M 29 269" fill="none" stroke="rgb(0, 0, 0)" stroke-linecap="square" stroke-miterlimit="10" pointer-events="none"/><g fill="rgb(0, 0, 0)" font-family="Helvetica" font-weight="bold" pointer-events="none" clip-path="url(#mx-clip-35-239-215-30-0)" font-size="12px"><text x="36.5" y="258.5">modifiedBy (수정자) - varchar(100)</text></g><path d="M 329 30 L 329 0 L 579 0 L 579 30" fill="rgb(255, 255, 255)" stroke="rgb(0, 0, 0)" stroke-miterlimit="10" pointer-events="none"/><path d="M 329 30 L 329 249 L 579 249 L 579 30" fill="none" stroke="rgb(0, 0, 0)" stroke-miterlimit="10" pointer-events="none"/><path d="M 329 30 L 579 30" fill="none" stroke="rgb(0, 0, 0)" stroke-miterlimit="10" pointer-events="none"/><path d="M 358 30 L 358 60 L 358 90 L 358 119 L 358 149 L 358 179 L 358 209 L 358 239" fill="none" stroke="rgb(0, 0, 0)" stroke-miterlimit="10" pointer-events="none"/><g fill="rgb(0, 0, 0)" font-family="Helvetica" font-weight="bold" pointer-events="none" text-anchor="middle" font-size="12px"><text x="453.5" y="19.5">Article (게시글)</text></g><path d="M 329 30 M 579 30 M 579 60 L 329 60" fill="none" stroke="rgb(0, 0, 0)" stroke-linecap="square" stroke-miterlimit="10" pointer-events="none"/><path d="M 329 30 M 358 30 M 358 60 M 329 60" fill="none" stroke="rgb(0, 0, 0)" stroke-linecap="square" stroke-miterlimit="10" pointer-events="none"/><g fill="rgb(0, 0, 0)" font-family="Helvetica" font-weight="bold" pointer-events="none" clip-path="url(#mx-clip-329-30-29-30-0)" text-anchor="middle" font-size="12px"><text x="343" y="49.5">PK</text></g><path d="M 358 30 M 579 30 M 579 60 M 358 60" fill="none" stroke="rgb(0, 0, 0)" stroke-linecap="square" stroke-miterlimit="10" pointer-events="none"/><g fill="rgb(0, 0, 0)" font-family="Helvetica" font-weight="bold" pointer-events="none" clip-path="url(#mx-clip-364-30-215-30-0)" font-size="12px"><text x="365.5" y="49.5">id - bigint</text></g><path d="M 329 60 M 579 60 M 579 90 M 329 90" fill="none" stroke="rgb(0, 0, 0)" stroke-linecap="square" stroke-miterlimit="10" pointer-events="none"/><path d="M 329 60 M 358 60 M 358 90 M 329 90" fill="none" stroke="rgb(0, 0, 0)" stroke-linecap="square" stroke-miterlimit="10" pointer-events="none"/><g fill="rgb(0, 0, 0)" font-family="Helvetica" pointer-events="none" clip-path="url(#mx-clip-329-60-29-30-0)" text-anchor="middle" font-size="12px"><text x="343" y="79.5">FK</text></g><path d="M 358 60 M 579 60 M 579 90 M 358 90" fill="none" stroke="rgb(0, 0, 0)" stroke-linecap="square" stroke-miterlimit="10" pointer-events="none"/><g fill="rgb(0, 0, 0)" font-family="Helvetica" font-weight="bold" pointer-events="none" clip-path="url(#mx-clip-364-60-215-30-0)" font-size="12px"><text x="365.5" y="79.5">article_id (게시글 id) - bigint</text></g><path d="M 329 90 M 579 90 M 579 119 M 329 119" fill="none" stroke="rgb(0, 0, 0)" stroke-linecap="square" stroke-miterlimit="10" pointer-events="none"/><path d="M 329 90 M 358 90 M 358 119 M 329 119" fill="none" stroke="rgb(0, 0, 0)" stroke-linecap="square" stroke-miterlimit="10" pointer-events="none"/><path d="M 358 90 M 579 90 M 579 119 M 358 119" fill="none" stroke="rgb(0, 0, 0)" stroke-linecap="square" stroke-miterlimit="10" pointer-events="none"/><g fill="rgb(0, 0, 0)" font-family="Helvetica" font-weight="bold" pointer-events="none" clip-path="url(#mx-clip-364-90-215-29-0)" font-size="12px"><text x="365.5" y="109">content (내용) - varchar(500)</text></g><path d="M 329 119 M 579 119 M 579 149 M 329 149" fill="none" stroke="rgb(0, 0, 0)" stroke-linecap="square" stroke-miterlimit="10" pointer-events="none"/><path d="M 329 119 M 358 119 M 358 149 M 329 149" fill="none" stroke="rgb(0, 0, 0)" stroke-linecap="square" stroke-miterlimit="10" pointer-events="none"/><path d="M 358 119 M 579 119 M 579 149 M 358 149" fill="none" stroke="rgb(0, 0, 0)" stroke-linecap="square" stroke-miterlimit="10" pointer-events="none"/><g fill="rgb(0, 0, 0)" font-family="Helvetica" font-weight="bold" pointer-events="none" clip-path="url(#mx-clip-364-119-215-30-0)" font-size="12px"><text x="365.5" y="138.5">createdAt (생성일시) - datetime</text></g><path d="M 329 149 M 579 149 M 579 179 M 329 179" fill="none" stroke="rgb(0, 0, 0)" stroke-linecap="square" stroke-miterlimit="10" pointer-events="none"/><path d="M 329 149 M 358 149 M 358 179 M 329 179" fill="none" stroke="rgb(0, 0, 0)" stroke-linecap="square" stroke-miterlimit="10" pointer-events="none"/><path d="M 358 149 M 579 149 M 579 179 M 358 179" fill="none" stroke="rgb(0, 0, 0)" stroke-linecap="square" stroke-miterlimit="10" pointer-events="none"/><g fill="rgb(0, 0, 0)" font-family="Helvetica" font-weight="bold" pointer-events="none" clip-path="url(#mx-clip-364-149-215-30-0)" font-size="12px"><text x="365.5" y="168.5">createdBy (생성자) - varchar(100)</text></g><path d="M 329 179 M 579 179 M 579 209 M 329 209" fill="none" stroke="rgb(0, 0, 0)" stroke-linecap="square" stroke-miterlimit="10" pointer-events="none"/><path d="M 329 179 M 358 179 M 358 209 M 329 209" fill="none" stroke="rgb(0, 0, 0)" stroke-linecap="square" stroke-miterlimit="10" pointer-events="none"/><path d="M 358 179 M 579 179 M 579 209 M 358 209" fill="none" stroke="rgb(0, 0, 0)" stroke-linecap="square" stroke-miterlimit="10" pointer-events="none"/><g fill="rgb(0, 0, 0)" font-family="Helvetica" font-weight="bold" pointer-events="none" clip-path="url(#mx-clip-364-179-215-30-0)" font-size="12px"><text x="365.5" y="198.5">modifiedAt (수정일시) - datetime</text></g><path d="M 329 209 M 579 209 M 579 239 M 329 239" fill="none" stroke="rgb(0, 0, 0)" stroke-linecap="square" stroke-miterlimit="10" pointer-events="none"/><path d="M 329 209 M 358 209 M 358 239 M 329 239" fill="none" stroke="rgb(0, 0, 0)" stroke-linecap="square" stroke-miterlimit="10" pointer-events="none"/><path d="M 358 209 M 579 209 M 579 239 M 358 239" fill="none" stroke="rgb(0, 0, 0)" stroke-linecap="square" stroke-miterlimit="10" pointer-events="none"/><g fill="rgb(0, 0, 0)" font-family="Helvetica" font-weight="bold" pointer-events="none" clip-path="url(#mx-clip-364-209-215-30-0)" font-size="12px"><text x="365.5" y="228.5">modifiedBy (수정자) - varchar(100)</text></g><path d="M 250 139.5 L 280 139.5 L 299 75 L 329 75" fill="none" stroke="rgb(0, 0, 0)" stroke-miterlimit="10" pointer-events="none"/><path d="M 254 135.5 L 254 143.5 M 258 135.5 L 258 143.5" fill="none" stroke="rgb(0, 0, 0)" stroke-miterlimit="10" pointer-events="none"/><ellipse cx="317" cy="75" rx="3" ry="3" fill="#ffffff" stroke="rgb(0, 0, 0)" pointer-events="none"/><path d="M 329 71 L 321 75 L 329 79" fill="none" stroke="rgb(0, 0, 0)" stroke-miterlimit="10" pointer-events="none"/></g></svg>