<?xml version="1.0" encoding="UTF-8"?>
<!-- Do not edit this file with editors other than diagrams.net -->
<!DOCTYPE svg PUBLIC "-//W3C//DTD SVG 1.1//EN" "http://www.w3.org/Graphics/SVG/1.1/DTD/svg11.dtd">
<svg xmlns="http://www.w3.org/2000/svg" xmlns:xlink="http://www.w3.org/1999/xlink" version="1.1" width="751px" height="739px" viewBox="-0.5 -0.5 751 739" content="&lt;mxfile host=&quot;app.diagrams.net&quot; modified=&quot;2022-07-18T11:03:13.339Z&quot; agent=&quot;5.0 (Macintosh; Intel Mac OS X 10_15_7) AppleWebKit/537.36 (KHTML, like Gecko) Chrome/103.0.0.0 Safari/537.36&quot; etag=&quot;1rHPFS7lj5fubnlqT702&quot; version=&quot;20.1.1&quot; type=&quot;github&quot;&gt;&lt;diagram id=&quot;R2lEEEUBdFMjLlhIrx00&quot; name=&quot;Page-1&quot;&gt;7V1bk5u4Ev41VGUfksJcPPBobE/27M5UspPMnrP7sqUYjc0JRg7WzNj59SuB8E3CBnMZGynlJCDLAnV/6k9quoVmDuerjzFYzO6RD0PN0P2VZo40w+jppkn+oyXrtKR/46YF0zjwWaVtwZfgJ8x+yUqfAx8u9ypihEIcLPYLJyiK4ATvlYE4Rq/71Z5QuH/VBZhCruDLBIR86X8DH8/SUsfWt+W/wmA6y67c09k3c5BVZgXLGfDR614RXOFbFGF2i59hPAcRjDD55h7E32Gs2eMZxrSnA824JZ8nWvvDFKFpCMEiWH6YoDkpnixJldsnMA9CKuadhjzWELmcOdbMYYwQTo/mqyEMqa4yNaT3dJvz7UYOMW23wA+G71/Wd991HP36av6J7++nn2++vTcYGl5A+MwEPIhxMCHSNvR32nigeYbmDLXxUHM8zR0mJY7m6L8wGeJ1phgizgU9xOAbLfKWGMSY4cfUSQFBBAZBRDpvjnrJeRiCxTJIqqclsyD078AaPeOsoezMewpW0H9I4UPrEiTdkcboKW2cKuILuxn6NQiDaUSOJ0Q69IpeDJfkXu7AErMavPyYSF9gjOFqp4jJ8yNEc4jjNanCvu0z2LCh5LIGXre4NG5Y2WwHk6bOhhxgQJtuWt5c7IGMHRBNEz1k95Ld4Do717nrbcr2r7d/ORASkUQAQw89R/5yFzXkYKej26IES2VwZXG4ygUMUQEOQLjt8SE0qH79GC2+gngKMStYoIBqdvwC0/GagCAIwyEKEUVYhCKYVUv6bXvkQyQx1D/Ymk1uYEjOe9tz8qHVYzxE0RLHBKn0UpAA5hVS0HgYLdh1QviU3UbMxEyPvyGMyfDPg9fxAXgadOt9bZ5GWT7I9tRdWrc2p9vPv5fRLiKdfQoT0zsLfB9GqXGgdAG2GhcoU6iBjdQP1XFoEopqxCqskV0VuOU0IBjmJVtrYxT3OU2T+ob+nvz9FkzpCLk8tWeWP63rLRdgEkTTu/SX/VZwsdrX4q5iLaNWnBRprg2g3Mhs7vUmzX3/zc29w+n29hLNfVEN3BTWQOfNu8tp9nkJ43/AZEKuif9JbP07OvcnE/+BTg/Ivw65UT1ZB5iaY7FC104u9kvHyKF2SHWZGb6+fvzxOJn/6L06v/9hPn780Z/PRFMIKZmBw0ZhsshlBrdFZhDrthrrt8oLJ+R/BLud5gVxv3nGxwHOXEKpvR9qY08bDLSBm9n8FxBPZiB+Z9h2vnPouix/naDpsuX/+//ubPHjU7yezgePv315+PPxU/Ce9yxKafgbWBKIHH9Cy28c8TMWtfxC3Vbz7r3ZguAoTiuvB45Ju7zdP2ythRHL+/Woyz59/vGO2nvH0Lxkxu+KDH9PJ3+6YvprhE1Jy18BRkWaawFHasrfmOW3BCBqas4v1O0VTflPDuF+YfF3aMYvlAQ/4Z+B5QyDaWr5R9S/k1p+9hR4pDlm9jj4RvOcriwCakeOdNN+3qeojH9Nxv/mrY1/FgPUCevvFpZ/161/r8epdRJDckl/gDOfDzX3o+TA0sjgoWuAkeZtA4MyAvDJz3AwhxeIi0aWAcVRJB0T9AxFBQ1RgaG/ORVUc+9dFhVskKq4oMe79hgXeOsjXDDWXF3gD7rKNcA5NFACQfLxAO9XVDxQEw+Yb84D1Zx9F8YDdmEFdJ4HeEffHPnBU7C3KHA019lGAKlFQXkcyccGvK9RsUFNbNB/czao5v27MDZwCiug62xg8I6/jA12lgU8G0i/LCgOIemIwOC9jir1sDBObKtA7qEgF9DIHiJ0IvdQDCyp/Y5ifB0fgdVyDwtovbYJhiBf+UpzD49DV005BBnEUuQeVsXFsXlEyaXAqXlEgebaAIpyLzZl7oW5h62ae967eCW5h8ehqsy7IHcIpLP/Tdph7gJAkyLVsCqCukwE4swbFXomxkZhbsglAmGqYUNEINStyTugLpgIzsobcztPBGLN8m4glYReUypiDqS6zAxi66aeOTW1RBDnIoocj03lIlak/QtbIdT2zOnqsxEFlF8qHdGW6DlTCdiUNP5VshELNNcGjqTeirBZ4y9MR2zTQWRWc/5dlvE3pdx5UCwK3vGnUlLqh5F0KwFTbVTYGBkI0xNbJYNqy7wLIwMp9ykUi4Jf4amclFoRJB0PWPziUvFAPTwgzk1skwcs3qV8gWO+oAI2SFU8kAWuqpyUM9igBI7kYwO1V2FjbCDMUGyVDbq0WaFVPCmo82zAu/5UTkq9EJKPCAq4h6A/hZnMiaQDvH6AIcABisbbb1LNpBkoPdJ7b4bnoZbG/MLIH9AXoZHT8cNPGKOv6B5Ea43lrWy/m4PI/5TAJqY9hj6DBVwF+H9ZY+T4L1pOaCE9G612qo3WufaFSXyJnuMJ69rR957gjM9yyYENSCqgopZp83a2XcVvCuNEsC9w74aPoOszSgI+MtyaGc8wLrL0A0SlfWe/2qKJa8g6aMg8bCiVDddQXTEyx0NktOLxMV1JnToRDXPCnB3CQhTd5oimKNlcphO5U+KQIZknwoXxlT9Ic+fBoswpIcYai6DkNHtFiVNnRb91flos7LZEaVM1ouLITNeud6ZbpLkWYKKSphoy9KKcqVYNPR858XiJhv58+dtyGnZ+aUoXAf/xc6f/20j4bUhkV7wcNeJGOtOvguEbMv1F15F1hMILb++KIuHPkb5zluG/pkB4Mej4WIXE/bMAy+UrivMIgJbYmmslr29wOvSOhproIAdNJemgArqKNNcGvKpFSyg+yI+I7AlA1OpaoOIW7BfPCL3uP/sU95v35sE5CMINFYySzChPG7gJA7AgmK489qwfMNItAlQgfGNWX5QU1a6r/4ri4M+Rf4pd+ay+IA4+CibfIzBnW2Z6NMTRcZMDSxtYLN7FsZThz8OMdIZfRb43ZvhFCVCtGv5rCnw/R/4pduUz/KLAdzhHmdFnk3xyMNAGnXHz1A8T6Wy94GVOytbXYuuFSU7tunauaOeDs+RvyWnrBS9UUjsf1A8j+bhAOXya4gJRilO7XNBxh09PUoeP4HVKauODWhEkHQ0I3uSkaKAeGhC9fa1VGhC8UekCh/z58jckdf9kalT7HtS0L7LyDzFBqH0PmiID983J4Iq2PThrEJuSkoHa9qA2HsiBkHQ8YPITDA4Wu9seEPM7Q1MUgbC1LQ8i0sPNngf0ZGfTA3q63fUgOcu2Pci2SsiOi2+VcLCLwcm9E46lU+9unSDeY+G0g6PRnRI2qQuMvuzeAQiL7pRg6/sNGXp/v6GcnRIIAsB6pxqbEOTfsHlww2wj6Lz7OqxvsfO8+qZTrX6v3z8YqGkP6x22BaZvFzJs9XLDtvgQ3B1a575Xp9GhZdtipJYeWmYW3bEJN2lmaNmHtuDE0Dqsb1nHh4pVsX7W79z7sY7WLzsUyWmMEN6tHoPF7B75kNb4Fw==&lt;/diagram&gt;&lt;/mxfile&gt;" resource="https://app.diagrams.net/#H95twan%2Fproject-board%2Fdevelop%2Fdocument%2Fboard-erd.svg"><defs><clipPath id="mx-clip-0-30-29-30-0"><rect x="0" y="30" width="29" height="30"/></clipPath><clipPath id="mx-clip-35-30-236-30-0"><rect x="35" y="30" width="236" height="30"/></clipPath><clipPath id="mx-clip-0-60-29-30-0"><rect x="0" y="60" width="29" height="30"/></clipPath><clipPath id="mx-clip-35-60-236-30-0"><rect x="35" y="60" width="236" height="30"/></clipPath><clipPath id="mx-clip-35-90-236-30-0"><rect x="35" y="90" width="236" height="30"/></clipPath><clipPath id="mx-clip-35-120-236-29-0"><rect x="35" y="120" width="236" height="29"/></clipPath><clipPath id="mx-clip-35-149-236-30-0"><rect x="35" y="149" width="236" height="30"/></clipPath><clipPath id="mx-clip-35-179-236-30-0"><rect x="35" y="179" width="236" height="30"/></clipPath><clipPath id="mx-clip-35-209-236-30-0"><rect x="35" y="209" width="236" height="30"/></clipPath><clipPath id="mx-clip-35-239-236-30-0"><rect x="35" y="239" width="236" height="30"/></clipPath><clipPath id="mx-clip-35-269-236-30-0"><rect x="35" y="269" width="236" height="30"/></clipPath><clipPath id="mx-clip-480-30-29-30-0"><rect x="480" y="30" width="29" height="30"/></clipPath><clipPath id="mx-clip-515-30-235-30-0"><rect x="515" y="30" width="235" height="30"/></clipPath><clipPath id="mx-clip-480-60-29-30-0"><rect x="480" y="60" width="29" height="30"/></clipPath><clipPath id="mx-clip-515-60-235-30-0"><rect x="515" y="60" width="235" height="30"/></clipPath><clipPath id="mx-clip-480-90-29-30-0"><rect x="480" y="90" width="29" height="30"/></clipPath><clipPath id="mx-clip-515-90-235-30-0"><rect x="515" y="90" width="235" height="30"/></clipPath><clipPath id="mx-clip-515-120-235-29-0"><rect x="515" y="120" width="235" height="29"/></clipPath><clipPath id="mx-clip-515-149-235-30-0"><rect x="515" y="149" width="235" height="30"/></clipPath><clipPath id="mx-clip-515-179-235-30-0"><rect x="515" y="179" width="235" height="30"/></clipPath><clipPath id="mx-clip-515-209-235-30-0"><rect x="515" y="209" width="235" height="30"/></clipPath><clipPath id="mx-clip-515-239-235-30-0"><rect x="515" y="239" width="235" height="30"/></clipPath><clipPath id="mx-clip-210-429-29-30-0"><rect x="210" y="429" width="29" height="30"/></clipPath><clipPath id="mx-clip-245-429-245-30-0"><rect x="245" y="429" width="245" height="30"/></clipPath><clipPath id="mx-clip-210-459-29-30-0"><rect x="210" y="459" width="29" height="30"/></clipPath><clipPath id="mx-clip-245-459-245-30-0"><rect x="245" y="459" width="245" height="30"/></clipPath><clipPath id="mx-clip-245-489-245-29-0"><rect x="245" y="489" width="245" height="29"/></clipPath><clipPath id="mx-clip-245-518-245-30-0"><rect x="245" y="518" width="245" height="30"/></clipPath><clipPath id="mx-clip-245-548-245-30-0"><rect x="245" y="548" width="245" height="30"/></clipPath><clipPath id="mx-clip-245-578-245-30-0"><rect x="245" y="578" width="245" height="30"/></clipPath><clipPath id="mx-clip-245-608-245-30-0"><rect x="245" y="608" width="245" height="30"/></clipPath><clipPath id="mx-clip-245-638-245-30-0"><rect x="245" y="638" width="245" height="30"/></clipPath><clipPath id="mx-clip-245-668-245-30-0"><rect x="245" y="668" width="245" height="30"/></clipPath><clipPath id="mx-clip-245-698-245-30-0"><rect x="245" y="698" width="245" height="30"/></clipPath></defs><g><path d="M 0 30 L 0 0 L 271 0 L 271 30" fill="rgb(255, 255, 255)" stroke="rgb(0, 0, 0)" stroke-miterlimit="10" pointer-events="all"/><path d="M 0 30 L 0 309 L 271 309 L 271 30" fill="none" stroke="rgb(0, 0, 0)" stroke-miterlimit="10" pointer-events="none"/><path d="M 0 30 L 271 30" fill="none" stroke="rgb(0, 0, 0)" stroke-miterlimit="10" pointer-events="none"/><path d="M 29 30 L 29 60 L 29 90 L 29 120 L 29 149 L 29 179 L 29 209 L 29 239 L 29 269 L 29 299" fill="none" stroke="rgb(0, 0, 0)" stroke-miterlimit="10" pointer-events="none"/><g fill="rgb(0, 0, 0)" font-family="Helvetica" font-weight="bold" pointer-events="none" text-anchor="middle" font-size="12px"><text x="135" y="19.5">Article (게시글)</text></g><path d="M 0 30 M 271 30 M 271 60 L 0 60" fill="none" stroke="rgb(0, 0, 0)" stroke-linecap="square" stroke-miterlimit="10" pointer-events="none"/><path d="M 0 30 M 29 30 M 29 60 M 0 60" fill="none" stroke="rgb(0, 0, 0)" stroke-linecap="square" stroke-miterlimit="10" pointer-events="none"/><g fill="rgb(0, 0, 0)" font-family="Helvetica" font-weight="bold" pointer-events="none" clip-path="url(#mx-clip-0-30-29-30-0)" text-anchor="middle" font-size="12px"><text x="14" y="49.5">PK</text></g><path d="M 29 30 M 271 30 M 271 60 M 29 60" fill="none" stroke="rgb(0, 0, 0)" stroke-linecap="square" stroke-miterlimit="10" pointer-events="none"/><g fill="rgb(0, 0, 0)" font-family="Helvetica" font-weight="bold" pointer-events="none" clip-path="url(#mx-clip-35-30-236-30-0)" font-size="12px"><text x="36.5" y="49.5">id - bigint</text></g><path d="M 0 60 M 271 60 M 271 90 M 0 90" fill="none" stroke="rgb(0, 0, 0)" stroke-linecap="square" stroke-miterlimit="10" pointer-events="none"/><path d="M 0 60 M 29 60 M 29 90 M 0 90" fill="none" stroke="rgb(0, 0, 0)" stroke-linecap="square" stroke-miterlimit="10" pointer-events="none"/><g fill="rgb(0, 0, 0)" font-family="Helvetica" pointer-events="none" clip-path="url(#mx-clip-0-60-29-30-0)" text-anchor="middle" font-size="12px"><text x="14" y="79.5">FK</text></g><path d="M 29 60 M 271 60 M 271 90 M 29 90" fill="none" stroke="rgb(0, 0, 0)" stroke-linecap="square" stroke-miterlimit="10" pointer-events="none"/><g fill="rgb(0, 0, 0)" font-family="Helvetica" font-weight="bold" pointer-events="none" clip-path="url(#mx-clip-35-60-236-30-0)" font-size="12px"><text x="36.5" y="79.5">user_account_id (유저 계정 id) - bigint</text></g><path d="M 0 90 M 271 90 M 271 120 M 0 120" fill="none" stroke="rgb(0, 0, 0)" stroke-linecap="square" stroke-miterlimit="10" pointer-events="none"/><path d="M 0 90 M 29 90 M 29 120 M 0 120" fill="none" stroke="rgb(0, 0, 0)" stroke-linecap="square" stroke-miterlimit="10" pointer-events="none"/><path d="M 29 90 M 271 90 M 271 120 M 29 120" fill="none" stroke="rgb(0, 0, 0)" stroke-linecap="square" stroke-miterlimit="10" pointer-events="none"/><g fill="rgb(0, 0, 0)" font-family="Helvetica" font-weight="bold" pointer-events="none" clip-path="url(#mx-clip-35-90-236-30-0)" font-size="12px"><text x="36.5" y="109.5">title (제목) - varchar(255)</text></g><path d="M 0 120 M 271 120 M 271 149 M 0 149" fill="none" stroke="rgb(0, 0, 0)" stroke-linecap="square" stroke-miterlimit="10" pointer-events="none"/><path d="M 0 120 M 29 120 M 29 149 M 0 149" fill="none" stroke="rgb(0, 0, 0)" stroke-linecap="square" stroke-miterlimit="10" pointer-events="none"/><path d="M 29 120 M 271 120 M 271 149 M 29 149" fill="none" stroke="rgb(0, 0, 0)" stroke-linecap="square" stroke-miterlimit="10" pointer-events="none"/><g fill="rgb(0, 0, 0)" font-family="Helvetica" font-weight="bold" pointer-events="none" clip-path="url(#mx-clip-35-120-236-29-0)" font-size="12px"><text x="36.5" y="139">content (내용) - varchar(10000)</text></g><path d="M 0 149 M 271 149 M 271 179 M 0 179" fill="none" stroke="rgb(0, 0, 0)" stroke-linecap="square" stroke-miterlimit="10" pointer-events="none"/><path d="M 0 149 M 29 149 M 29 179 M 0 179" fill="none" stroke="rgb(0, 0, 0)" stroke-linecap="square" stroke-miterlimit="10" pointer-events="none"/><path d="M 29 149 M 271 149 M 271 179 M 29 179" fill="none" stroke="rgb(0, 0, 0)" stroke-linecap="square" stroke-miterlimit="10" pointer-events="none"/><g fill="rgb(0, 0, 0)" font-family="Helvetica" pointer-events="none" clip-path="url(#mx-clip-35-149-236-30-0)" font-size="12px"><text x="36.5" y="168.5">hashtag (해시태그) - varchar(255)</text></g><path d="M 0 179 M 271 179 M 271 209 M 0 209" fill="none" stroke="rgb(0, 0, 0)" stroke-linecap="square" stroke-miterlimit="10" pointer-events="none"/><path d="M 0 179 M 29 179 M 29 209 M 0 209" fill="none" stroke="rgb(0, 0, 0)" stroke-linecap="square" stroke-miterlimit="10" pointer-events="none"/><path d="M 29 179 M 271 179 M 271 209 M 29 209" fill="none" stroke="rgb(0, 0, 0)" stroke-linecap="square" stroke-miterlimit="10" pointer-events="none"/><g fill="rgb(0, 0, 0)" font-family="Helvetica" font-weight="bold" pointer-events="none" clip-path="url(#mx-clip-35-179-236-30-0)" font-size="12px"><text x="36.5" y="198.5">createdAt (생성일시) - datetime</text></g><path d="M 0 209 M 271 209 M 271 239 M 0 239" fill="none" stroke="rgb(0, 0, 0)" stroke-linecap="square" stroke-miterlimit="10" pointer-events="none"/><path d="M 0 209 M 29 209 M 29 239 M 0 239" fill="none" stroke="rgb(0, 0, 0)" stroke-linecap="square" stroke-miterlimit="10" pointer-events="none"/><path d="M 29 209 M 271 209 M 271 239 M 29 239" fill="none" stroke="rgb(0, 0, 0)" stroke-linecap="square" stroke-miterlimit="10" pointer-events="none"/><g fill="rgb(0, 0, 0)" font-family="Helvetica" font-weight="bold" pointer-events="none" clip-path="url(#mx-clip-35-209-236-30-0)" font-size="12px"><text x="36.5" y="228.5">createdBy (생성자) - varchar(100)</text></g><path d="M 0 239 M 271 239 M 271 269 M 0 269" fill="none" stroke="rgb(0, 0, 0)" stroke-linecap="square" stroke-miterlimit="10" pointer-events="none"/><path d="M 0 239 M 29 239 M 29 269 M 0 269" fill="none" stroke="rgb(0, 0, 0)" stroke-linecap="square" stroke-miterlimit="10" pointer-events="none"/><path d="M 29 239 M 271 239 M 271 269 M 29 269" fill="none" stroke="rgb(0, 0, 0)" stroke-linecap="square" stroke-miterlimit="10" pointer-events="none"/><g fill="rgb(0, 0, 0)" font-family="Helvetica" font-weight="bold" pointer-events="none" clip-path="url(#mx-clip-35-239-236-30-0)" font-size="12px"><text x="36.5" y="258.5">modifiedAt (수정일시) - datetime</text></g><path d="M 0 269 M 271 269 M 271 299 M 0 299" fill="none" stroke="rgb(0, 0, 0)" stroke-linecap="square" stroke-miterlimit="10" pointer-events="none"/><path d="M 0 269 M 29 269 M 29 299 M 0 299" fill="none" stroke="rgb(0, 0, 0)" stroke-linecap="square" stroke-miterlimit="10" pointer-events="none"/><path d="M 29 269 M 271 269 M 271 299 M 29 299" fill="none" stroke="rgb(0, 0, 0)" stroke-linecap="square" stroke-miterlimit="10" pointer-events="none"/><g fill="rgb(0, 0, 0)" font-family="Helvetica" font-weight="bold" pointer-events="none" clip-path="url(#mx-clip-35-269-236-30-0)" font-size="12px"><text x="36.5" y="288.5">modifiedBy (수정자) - varchar(100)</text></g><path d="M 480 30 L 480 0 L 750 0 L 750 30" fill="rgb(255, 255, 255)" stroke="rgb(0, 0, 0)" stroke-miterlimit="10" pointer-events="none"/><path d="M 480 30 L 480 279 L 750 279 L 750 30" fill="none" stroke="rgb(0, 0, 0)" stroke-miterlimit="10" pointer-events="none"/><path d="M 480 30 L 750 30" fill="none" stroke="rgb(0, 0, 0)" stroke-miterlimit="10" pointer-events="none"/><path d="M 509 30 L 509 60 L 509 90 L 509 120 L 509 149 L 509 179 L 509 209 L 509 239 L 509 269" fill="none" stroke="rgb(0, 0, 0)" stroke-miterlimit="10" pointer-events="none"/><g fill="rgb(0, 0, 0)" font-family="Helvetica" font-weight="bold" pointer-events="none" text-anchor="middle" font-size="12px"><text x="614.5" y="19.5">Article (게시글)</text></g><path d="M 480 30 M 750 30 M 750 60 L 480 60" fill="none" stroke="rgb(0, 0, 0)" stroke-linecap="square" stroke-miterlimit="10" pointer-events="none"/><path d="M 480 30 M 509 30 M 509 60 M 480 60" fill="none" stroke="rgb(0, 0, 0)" stroke-linecap="square" stroke-miterlimit="10" pointer-events="none"/><g fill="rgb(0, 0, 0)" font-family="Helvetica" font-weight="bold" pointer-events="none" clip-path="url(#mx-clip-480-30-29-30-0)" text-anchor="middle" font-size="12px"><text x="494" y="49.5">PK</text></g><path d="M 509 30 M 750 30 M 750 60 M 509 60" fill="none" stroke="rgb(0, 0, 0)" stroke-linecap="square" stroke-miterlimit="10" pointer-events="none"/><g fill="rgb(0, 0, 0)" font-family="Helvetica" font-weight="bold" pointer-events="none" clip-path="url(#mx-clip-515-30-235-30-0)" font-size="12px"><text x="516.5" y="49.5">id - bigint</text></g><path d="M 480 60 M 750 60 M 750 90 M 480 90" fill="none" stroke="rgb(0, 0, 0)" stroke-linecap="square" stroke-miterlimit="10" pointer-events="none"/><path d="M 480 60 M 509 60 M 509 90 M 480 90" fill="none" stroke="rgb(0, 0, 0)" stroke-linecap="square" stroke-miterlimit="10" pointer-events="none"/><g fill="rgb(0, 0, 0)" font-family="Helvetica" pointer-events="none" clip-path="url(#mx-clip-480-60-29-30-0)" text-anchor="middle" font-size="12px"><text x="494" y="79.5">FK</text></g><path d="M 509 60 M 750 60 M 750 90 M 509 90" fill="none" stroke="rgb(0, 0, 0)" stroke-linecap="square" stroke-miterlimit="10" pointer-events="none"/><g fill="rgb(0, 0, 0)" font-family="Helvetica" font-weight="bold" pointer-events="none" clip-path="url(#mx-clip-515-60-235-30-0)" font-size="12px"><text x="516.5" y="79.5">article_id (게시글 id) - bigint</text></g><path d="M 480 90 M 750 90 M 750 120 M 480 120" fill="none" stroke="rgb(0, 0, 0)" stroke-linecap="square" stroke-miterlimit="10" pointer-events="none"/><path d="M 480 90 M 509 90 M 509 120 M 480 120" fill="none" stroke="rgb(0, 0, 0)" stroke-linecap="square" stroke-miterlimit="10" pointer-events="none"/><g fill="rgb(0, 0, 0)" font-family="Helvetica" pointer-events="none" clip-path="url(#mx-clip-480-90-29-30-0)" text-anchor="middle" font-size="12px"><text x="494" y="109.5">FK</text></g><path d="M 509 90 M 750 90 M 750 120 M 509 120" fill="none" stroke="rgb(0, 0, 0)" stroke-linecap="square" stroke-miterlimit="10" pointer-events="none"/><g fill="rgb(0, 0, 0)" font-family="Helvetica" font-weight="bold" pointer-events="none" clip-path="url(#mx-clip-515-90-235-30-0)" font-size="12px"><text x="516.5" y="109.5">user_account_id (유저 계정 id) - bigint</text></g><path d="M 480 120 M 750 120 M 750 149 M 480 149" fill="none" stroke="rgb(0, 0, 0)" stroke-linecap="square" stroke-miterlimit="10" pointer-events="none"/><path d="M 480 120 M 509 120 M 509 149 M 480 149" fill="none" stroke="rgb(0, 0, 0)" stroke-linecap="square" stroke-miterlimit="10" pointer-events="none"/><path d="M 509 120 M 750 120 M 750 149 M 509 149" fill="none" stroke="rgb(0, 0, 0)" stroke-linecap="square" stroke-miterlimit="10" pointer-events="none"/><g fill="rgb(0, 0, 0)" font-family="Helvetica" font-weight="bold" pointer-events="none" clip-path="url(#mx-clip-515-120-235-29-0)" font-size="12px"><text x="516.5" y="139">content (내용) - varchar(500)</text></g><path d="M 480 149 M 750 149 M 750 179 M 480 179" fill="none" stroke="rgb(0, 0, 0)" stroke-linecap="square" stroke-miterlimit="10" pointer-events="none"/><path d="M 480 149 M 509 149 M 509 179 M 480 179" fill="none" stroke="rgb(0, 0, 0)" stroke-linecap="square" stroke-miterlimit="10" pointer-events="none"/><path d="M 509 149 M 750 149 M 750 179 M 509 179" fill="none" stroke="rgb(0, 0, 0)" stroke-linecap="square" stroke-miterlimit="10" pointer-events="none"/><g fill="rgb(0, 0, 0)" font-family="Helvetica" font-weight="bold" pointer-events="none" clip-path="url(#mx-clip-515-149-235-30-0)" font-size="12px"><text x="516.5" y="168.5">createdAt (생성일시) - datetime</text></g><path d="M 480 179 M 750 179 M 750 209 M 480 209" fill="none" stroke="rgb(0, 0, 0)" stroke-linecap="square" stroke-miterlimit="10" pointer-events="none"/><path d="M 480 179 M 509 179 M 509 209 M 480 209" fill="none" stroke="rgb(0, 0, 0)" stroke-linecap="square" stroke-miterlimit="10" pointer-events="none"/><path d="M 509 179 M 750 179 M 750 209 M 509 209" fill="none" stroke="rgb(0, 0, 0)" stroke-linecap="square" stroke-miterlimit="10" pointer-events="none"/><g fill="rgb(0, 0, 0)" font-family="Helvetica" font-weight="bold" pointer-events="none" clip-path="url(#mx-clip-515-179-235-30-0)" font-size="12px"><text x="516.5" y="198.5">createdBy (생성자) - varchar(100)</text></g><path d="M 480 209 M 750 209 M 750 239 M 480 239" fill="none" stroke="rgb(0, 0, 0)" stroke-linecap="square" stroke-miterlimit="10" pointer-events="none"/><path d="M 480 209 M 509 209 M 509 239 M 480 239" fill="none" stroke="rgb(0, 0, 0)" stroke-linecap="square" stroke-miterlimit="10" pointer-events="none"/><path d="M 509 209 M 750 209 M 750 239 M 509 239" fill="none" stroke="rgb(0, 0, 0)" stroke-linecap="square" stroke-miterlimit="10" pointer-events="none"/><g fill="rgb(0, 0, 0)" font-family="Helvetica" font-weight="bold" pointer-events="none" clip-path="url(#mx-clip-515-209-235-30-0)" font-size="12px"><text x="516.5" y="228.5">modifiedAt (수정일시) - datetime</text></g><path d="M 480 239 M 750 239 M 750 269 M 480 269" fill="none" stroke="rgb(0, 0, 0)" stroke-linecap="square" stroke-miterlimit="10" pointer-events="none"/><path d="M 480 239 M 509 239 M 509 269 M 480 269" fill="none" stroke="rgb(0, 0, 0)" stroke-linecap="square" stroke-miterlimit="10" pointer-events="none"/><path d="M 509 239 M 750 239 M 750 269 M 509 269" fill="none" stroke="rgb(0, 0, 0)" stroke-linecap="square" stroke-miterlimit="10" pointer-events="none"/><g fill="rgb(0, 0, 0)" font-family="Helvetica" font-weight="bold" pointer-events="none" clip-path="url(#mx-clip-515-239-235-30-0)" font-size="12px"><text x="516.5" y="258.5">modifiedBy (수정자) - varchar(100)</text></g><path d="M 271 45 L 301 45 L 450 75 L 480 75" fill="none" stroke="rgb(0, 0, 0)" stroke-miterlimit="10" pointer-events="none"/><path d="M 275 41 L 275 49 M 279 41 L 279 49" fill="none" stroke="rgb(0, 0, 0)" stroke-miterlimit="10" pointer-events="none"/><ellipse cx="468" cy="75" rx="3" ry="3" fill="#ffffff" stroke="rgb(0, 0, 0)" pointer-events="none"/><path d="M 480 71 L 472 75 L 480 79" fill="none" stroke="rgb(0, 0, 0)" stroke-miterlimit="10" pointer-events="none"/><path d="M 210 429 L 210 399 L 490 399 L 490 429" fill="rgb(255, 255, 255)" stroke="rgb(0, 0, 0)" stroke-miterlimit="10" pointer-events="none"/><path d="M 210 429 L 210 738 L 490 738 L 490 429" fill="none" stroke="rgb(0, 0, 0)" stroke-miterlimit="10" pointer-events="none"/><path d="M 210 429 L 490 429" fill="none" stroke="rgb(0, 0, 0)" stroke-miterlimit="10" pointer-events="none"/><path d="M 239 429 L 239 459 L 239 489 L 239 518 L 239 548 L 239 578 L 239 608 L 239 638 L 239 668 L 239 698 L 239 728" fill="none" stroke="rgb(0, 0, 0)" stroke-miterlimit="10" pointer-events="none"/><g fill="rgb(0, 0, 0)" font-family="Helvetica" font-weight="bold" pointer-events="none" text-anchor="middle" font-size="12px"><text x="349.5" y="418.5">user_account (유저 계정)</text></g><path d="M 210 429 M 490 429 M 490 459 L 210 459" fill="none" stroke="rgb(0, 0, 0)" stroke-linecap="square" stroke-miterlimit="10" pointer-events="none"/><path d="M 210 429 M 239 429 M 239 459 M 210 459" fill="none" stroke="rgb(0, 0, 0)" stroke-linecap="square" stroke-miterlimit="10" pointer-events="none"/><g fill="rgb(0, 0, 0)" font-family="Helvetica" font-weight="bold" pointer-events="none" clip-path="url(#mx-clip-210-429-29-30-0)" text-anchor="middle" font-size="12px"><text x="224" y="448.5">PK</text></g><path d="M 239 429 M 490 429 M 490 459 M 239 459" fill="none" stroke="rgb(0, 0, 0)" stroke-linecap="square" stroke-miterlimit="10" pointer-events="none"/><g fill="rgb(0, 0, 0)" font-family="Helvetica" font-weight="bold" pointer-events="none" clip-path="url(#mx-clip-245-429-245-30-0)" font-size="12px"><text x="246.5" y="448.5">id - bigint</text></g><path d="M 210 459 M 490 459 M 490 489 M 210 489" fill="none" stroke="rgb(0, 0, 0)" stroke-linecap="square" stroke-miterlimit="10" pointer-events="none"/><path d="M 210 459 M 239 459 M 239 489 M 210 489" fill="none" stroke="rgb(0, 0, 0)" stroke-linecap="square" stroke-miterlimit="10" pointer-events="none"/><g fill="rgb(0, 0, 0)" font-family="Helvetica" pointer-events="none" clip-path="url(#mx-clip-210-459-29-30-0)" text-anchor="middle" font-size="12px"><text x="224" y="478.5">UK</text></g><path d="M 239 459 M 490 459 M 490 489 M 239 489" fill="none" stroke="rgb(0, 0, 0)" stroke-linecap="square" stroke-miterlimit="10" pointer-events="none"/><g fill="rgb(0, 0, 0)" font-family="Helvetica" font-weight="bold" pointer-events="none" clip-path="url(#mx-clip-245-459-245-30-0)" font-size="12px"><text x="246.5" y="478.5">userId (유저 id) - varchar(50)</text></g><path d="M 210 489 M 490 489 M 490 518 M 210 518" fill="none" stroke="rgb(0, 0, 0)" stroke-linecap="square" stroke-miterlimit="10" pointer-events="none"/><path d="M 210 489 M 239 489 M 239 518 M 210 518" fill="none" stroke="rgb(0, 0, 0)" stroke-linecap="square" stroke-miterlimit="10" pointer-events="none"/><path d="M 239 489 M 490 489 M 490 518 M 239 518" fill="none" stroke="rgb(0, 0, 0)" stroke-linecap="square" stroke-miterlimit="10" pointer-events="none"/><g fill="rgb(0, 0, 0)" font-family="Helvetica" font-weight="bold" pointer-events="none" clip-path="url(#mx-clip-245-489-245-29-0)" font-size="12px"><text x="246.5" y="508">user_password (유저암호) - varchar(255)</text></g><path d="M 210 518 M 490 518 M 490 548 M 210 548" fill="none" stroke="rgb(0, 0, 0)" stroke-linecap="square" stroke-miterlimit="10" pointer-events="none"/><path d="M 210 518 M 239 518 M 239 548 M 210 548" fill="none" stroke="rgb(0, 0, 0)" stroke-linecap="square" stroke-miterlimit="10" pointer-events="none"/><path d="M 239 518 M 490 518 M 490 548 M 239 548" fill="none" stroke="rgb(0, 0, 0)" stroke-linecap="square" stroke-miterlimit="10" pointer-events="none"/><g fill="rgb(0, 0, 0)" font-family="Helvetica" pointer-events="none" clip-path="url(#mx-clip-245-518-245-30-0)" font-size="12px"><text x="246.5" y="537.5">email (이메일) - varchar(100)</text></g><path d="M 210 548 M 490 548 M 490 578 M 210 578" fill="none" stroke="rgb(0, 0, 0)" stroke-linecap="square" stroke-miterlimit="10" pointer-events="none"/><path d="M 210 548 M 239 548 M 239 578 M 210 578" fill="none" stroke="rgb(0, 0, 0)" stroke-linecap="square" stroke-miterlimit="10" pointer-events="none"/><path d="M 239 548 M 490 548 M 490 578 M 239 578" fill="none" stroke="rgb(0, 0, 0)" stroke-linecap="square" stroke-miterlimit="10" pointer-events="none"/><g fill="rgb(0, 0, 0)" font-family="Helvetica" pointer-events="none" clip-path="url(#mx-clip-245-548-245-30-0)" font-size="12px"><text x="246.5" y="567.5">nickname (닉네임) - varchar(100)</text></g><path d="M 210 578 M 490 578 M 490 608 M 210 608" fill="none" stroke="rgb(0, 0, 0)" stroke-linecap="square" stroke-miterlimit="10" pointer-events="none"/><path d="M 210 578 M 239 578 M 239 608 M 210 608" fill="none" stroke="rgb(0, 0, 0)" stroke-linecap="square" stroke-miterlimit="10" pointer-events="none"/><path d="M 239 578 M 490 578 M 490 608 M 239 608" fill="none" stroke="rgb(0, 0, 0)" stroke-linecap="square" stroke-miterlimit="10" pointer-events="none"/><g fill="rgb(0, 0, 0)" font-family="Helvetica" pointer-events="none" clip-path="url(#mx-clip-245-578-245-30-0)" font-size="12px"><text x="246.5" y="597.5">memo (메모) - varchar(255)</text></g><path d="M 210 608 M 490 608 M 490 638 M 210 638" fill="none" stroke="rgb(0, 0, 0)" stroke-linecap="square" stroke-miterlimit="10" pointer-events="none"/><path d="M 210 608 M 239 608 M 239 638 M 210 638" fill="none" stroke="rgb(0, 0, 0)" stroke-linecap="square" stroke-miterlimit="10" pointer-events="none"/><path d="M 239 608 M 490 608 M 490 638 M 239 638" fill="none" stroke="rgb(0, 0, 0)" stroke-linecap="square" stroke-miterlimit="10" pointer-events="none"/><g fill="rgb(0, 0, 0)" font-family="Helvetica" font-weight="bold" pointer-events="none" clip-path="url(#mx-clip-245-608-245-30-0)" font-size="12px"><text x="246.5" y="627.5">createdAt (생성일시) - datetime</text></g><path d="M 210 638 M 490 638 M 490 668 M 210 668" fill="none" stroke="rgb(0, 0, 0)" stroke-linecap="square" stroke-miterlimit="10" pointer-events="none"/><path d="M 210 638 M 239 638 M 239 668 M 210 668" fill="none" stroke="rgb(0, 0, 0)" stroke-linecap="square" stroke-miterlimit="10" pointer-events="none"/><path d="M 239 638 M 490 638 M 490 668 M 239 668" fill="none" stroke="rgb(0, 0, 0)" stroke-linecap="square" stroke-miterlimit="10" pointer-events="none"/><g fill="rgb(0, 0, 0)" font-family="Helvetica" font-weight="bold" pointer-events="none" clip-path="url(#mx-clip-245-638-245-30-0)" font-size="12px"><text x="246.5" y="657.5">createdBy (생성자) - varchar(100)</text></g><path d="M 210 668 M 490 668 M 490 698 M 210 698" fill="none" stroke="rgb(0, 0, 0)" stroke-linecap="square" stroke-miterlimit="10" pointer-events="none"/><path d="M 210 668 M 239 668 M 239 698 M 210 698" fill="none" stroke="rgb(0, 0, 0)" stroke-linecap="square" stroke-miterlimit="10" pointer-events="none"/><path d="M 239 668 M 490 668 M 490 698 M 239 698" fill="none" stroke="rgb(0, 0, 0)" stroke-linecap="square" stroke-miterlimit="10" pointer-events="none"/><g fill="rgb(0, 0, 0)" font-family="Helvetica" font-weight="bold" pointer-events="none" clip-path="url(#mx-clip-245-668-245-30-0)" font-size="12px"><text x="246.5" y="687.5">modifiedAt (수정일시) - datetime</text></g><path d="M 210 698 M 490 698 M 490 728 M 210 728" fill="none" stroke="rgb(0, 0, 0)" stroke-linecap="square" stroke-miterlimit="10" pointer-events="none"/><path d="M 210 698 M 239 698 M 239 728 M 210 728" fill="none" stroke="rgb(0, 0, 0)" stroke-linecap="square" stroke-miterlimit="10" pointer-events="none"/><path d="M 239 698 M 490 698 M 490 728 M 239 728" fill="none" stroke="rgb(0, 0, 0)" stroke-linecap="square" stroke-miterlimit="10" pointer-events="none"/><g fill="rgb(0, 0, 0)" font-family="Helvetica" font-weight="bold" pointer-events="none" clip-path="url(#mx-clip-245-698-245-30-0)" font-size="12px"><text x="246.5" y="717.5">modifiedBy (수정자) - varchar(100)</text></g><path d="M 210 444 L 170 444 L 170 339 L 320 339 L 320 75 L 271 75" fill="none" stroke="rgb(0, 0, 0)" stroke-miterlimit="10" pointer-events="none"/><path d="M 206 448 L 206 440 M 202 448 L 202 440" fill="none" stroke="rgb(0, 0, 0)" stroke-miterlimit="10" pointer-events="none"/><ellipse cx="283" cy="75" rx="3" ry="3" fill="#ffffff" stroke="rgb(0, 0, 0)" pointer-events="none"/><path d="M 271 79 L 279 75 L 271 71" fill="none" stroke="rgb(0, 0, 0)" stroke-miterlimit="10" pointer-events="none"/><path d="M 490 444 L 530 444 L 530 349 L 430 349 L 430 85 L 480 85 L 480 105" fill="none" stroke="rgb(0, 0, 0)" stroke-miterlimit="10" pointer-events="none"/><path d="M 494 440 L 494 448 M 498 440 L 498 448" fill="none" stroke="rgb(0, 0, 0)" stroke-miterlimit="10" pointer-events="none"/><ellipse cx="480" cy="93" rx="3" ry="3" fill="#ffffff" stroke="rgb(0, 0, 0)" pointer-events="none"/><path d="M 484 105 L 480 97 L 476 105" fill="none" stroke="rgb(0, 0, 0)" stroke-miterlimit="10" pointer-events="none"/></g></svg>